<?xml version="1.0" standalone="no"?>
<!DOCTYPE svg PUBLIC "-//W3C//DTD SVG 20010904//EN"
 "http://www.w3.org/TR/2001/REC-SVG-20010904/DTD/svg10.dtd">
<svg version="1.0" xmlns="http://www.w3.org/2000/svg"
 width="2988.000000pt" height="2634.000000pt" viewBox="0 0 2988.000000 2634.000000"
 preserveAspectRatio="xMidYMid meet">
<metadata>
Created by potrace 1.16, written by Peter Selinger 2001-2019
</metadata>
<g transform="translate(0.000000,2634.000000) scale(0.100000,-0.100000)"
fill="#000000" stroke="none">
<path d="M0 26270 c0 -81 10 -88 53 -35 l28 35 -26 0 c-38 0 -30 17 13 24 72
12 77 12 76 -5 -1 -14 10 -17 70 -17 92 0 116 -4 116 -17 0 -14 -48 -65 -62
-65 -8 0 -8 -3 -3 -9 9 -8 230 -22 221 -14 -2 2 -23 7 -47 11 -42 7 -44 9 -40
37 1 17 5 34 8 39 3 5 47 6 97 3 50 -3 82 -2 72 2 -16 6 -10 11 32 24 58 19
92 22 92 7 0 -5 12 -10 28 -9 16 0 21 3 12 7 -10 4 -1 10 25 18 l40 12 -32 1
c-17 1 -35 6 -38 11 -8 13 -685 12 -685 -1 0 -5 -7 -9 -16 -9 -8 0 -12 5 -9
10 3 6 -1 10 -9 10 -13 0 -16 -13 -16 -70z"/>
<path d="M1305 26331 c28 -4 56 -10 64 -15 29 -19 -17 -25 -134 -19 -109 6
-119 5 -107 -10 18 -21 -1 -25 -107 -19 -60 4 -82 2 -77 -6 4 -6 14 -8 22 -5
18 7 66 -16 58 -28 -3 -5 -62 -7 -132 -5 -70 2 -119 2 -109 -1 9 -2 17 -8 17
-13 0 -4 -48 -6 -107 -4 -60 2 -101 1 -93 -2 8 -4 18 -12 22 -19 5 -9 59 -15
170 -19 90 -4 192 -12 228 -18 36 -6 111 -10 167 -9 61 1 104 -3 108 -9 12
-19 25 1 18 28 -8 36 -19 42 -75 42 -48 0 -98 16 -98 32 0 4 10 8 23 8 12 0
29 5 37 10 13 8 12 10 -2 10 -10 0 -18 4 -18 9 0 8 90 4 119 -5 7 -2 11 -10 8
-18 -6 -16 51 -26 149 -26 64 0 84 12 42 24 l-23 6 25 15 25 14 -38 1 c-52 0
-77 15 -70 40 5 19 1 20 -78 19 -73 -2 -78 -3 -34 -8z"/>
<path d="M24995 26330 c129 -20 228 -30 306 -30 46 0 149 -7 229 -15 80 -9
172 -15 205 -14 33 1 148 -1 255 -4 107 -4 321 -9 475 -12 154 -3 408 -10 565
-16 157 -5 431 -12 610 -14 179 -3 398 -10 486 -16 89 -7 171 -9 183 -6 25 6
316 -18 384 -32 54 -12 58 -14 107 -52 19 -16 55 -35 79 -44 85 -30 129 -21
341 68 l75 31 293 1 292 0 0 82 0 83 -2467 -1 c-1358 -1 -2445 -5 -2418 -9z"/>
<path d="M1360 26137 c0 -7 5 -18 12 -25 9 -9 9 -12 -2 -12 -7 0 -10 -3 -7 -6
4 -4 13 -1 22 6 8 7 23 9 32 5 33 -12 -15 -35 -74 -35 -46 0 -53 3 -53 20 0
15 -7 20 -28 20 -15 0 -35 -9 -45 -20 -12 -14 -29 -20 -57 -20 -23 0 -39 -4
-36 -8 6 -9 267 -25 376 -23 36 1 80 -3 98 -8 36 -11 44 2 11 20 -14 7 -41 9
-75 4 -43 -5 -54 -4 -54 7 0 12 28 14 143 15 170 1 219 5 224 20 5 14 -38 20
-192 28 -60 3 -128 10 -150 15 -61 14 -145 13 -145 -3z"/>
<path d="M257 26134 c-8 -9 -75 -16 -155 -18 -34 -1 -52 -5 -52 -13 0 -7 -11
-13 -25 -13 -19 0 -25 -5 -25 -23 0 -19 8 -24 56 -35 31 -8 57 -12 58 -10 1 2
7 15 14 31 10 23 17 27 52 27 23 0 39 4 36 9 -13 20 95 29 137 12 33 -13 161
-15 153 -2 -8 12 -63 24 -126 26 -30 1 -69 5 -85 9 -17 4 -34 3 -38 0z"/>
<path d="M220 26060 c-66 -24 -100 -42 -100 -52 0 -13 -63 -9 -93 6 -25 14
-27 13 -27 -5 0 -10 5 -19 11 -19 5 0 8 -4 5 -8 -10 -16 12 -33 50 -38 28 -4
35 -3 24 5 -26 18 0 25 29 8 16 -9 50 -17 74 -17 47 0 70 -16 46 -31 -8 -5
-25 -9 -39 -9 -14 0 -43 -8 -66 -17 -37 -15 -39 -18 -25 -32 10 -10 35 -17 61
-17 35 -1 40 0 23 7 -33 12 -28 22 8 14 22 -5 36 -2 49 10 11 10 24 14 32 9 7
-5 23 -7 35 -6 11 2 24 -2 28 -8 5 -7 0 -11 -11 -10 -41 5 -64 -1 -64 -15 0
-29 89 -50 105 -25 10 16 35 12 29 -5 -4 -8 -1 -15 5 -15 6 0 11 5 11 11 0 6
17 10 43 9 61 -4 67 -2 67 19 0 21 -14 25 -113 37 -45 5 -57 10 -53 21 3 8 6
17 6 19 0 2 7 4 16 4 8 0 12 -4 9 -10 -3 -5 3 -10 15 -10 13 0 19 4 14 12 -5
8 4 9 32 5 21 -4 51 -7 65 -7 20 0 28 -6 33 -25 4 -17 13 -25 27 -25 15 0 19
-5 15 -16 -3 -9 -6 -18 -6 -20 0 -2 -12 -4 -26 -4 -19 0 -25 -4 -22 -17 3 -16
14 -18 83 -15 44 2 89 7 100 12 11 5 34 12 50 16 34 8 27 10 -67 19 -51 5 -68
10 -68 22 0 12 10 13 55 8 30 -4 67 -4 81 -1 l27 7 -29 18 c-35 21 -189 54
-264 57 -150 5 -202 9 -206 16 -3 4 -11 5 -18 2 -7 -3 -19 2 -26 11 -7 9 -28
15 -51 15 -22 0 -39 5 -39 10 0 6 16 10 36 10 28 0 35 3 30 15 -3 8 -1 15 4
15 6 0 10 7 10 15 0 9 10 15 26 15 14 0 23 4 19 10 -8 13 -20 11 -75 -10z"/>
<path d="M436 26051 c-8 -12 26 -20 119 -26 104 -8 130 -14 118 -26 -5 -5 -19
-11 -31 -14 -82 -15 -28 -34 117 -40 58 -3 109 -9 115 -15 16 -16 89 -12 126
7 29 14 31 17 17 28 -9 7 -14 15 -10 18 3 4 -26 7 -65 7 -59 0 -72 -3 -72 -16
0 -12 -9 -14 -42 -12 -46 3 -67 28 -24 28 14 0 26 4 26 9 0 11 -87 31 -135 31
-19 0 -56 4 -82 9 -77 15 -172 21 -177 12z"/>
<path d="M1971 26032 c-10 -19 -6 -20 162 -27 183 -7 327 -4 327 7 0 4 15 8
33 10 l32 4 -30 13 c-22 9 -40 10 -70 2 -22 -6 -60 -13 -85 -16 -25 -3 -69 -8
-99 -12 -48 -5 -54 -4 -48 10 6 15 -3 17 -72 17 -43 0 -92 3 -109 6 -24 5 -32
2 -41 -14z"/>
<path d="M28220 25996 c0 -9 -11 -21 -24 -26 -13 -5 -27 -14 -31 -19 -3 -6
-24 -11 -46 -11 -28 0 -42 -6 -51 -20 -7 -11 -20 -20 -28 -20 -9 0 -22 -6 -29
-12 -10 -11 -16 -8 -32 11 -10 13 -19 18 -19 12 0 -6 -10 -11 -22 -11 -30 0
-49 -13 -40 -26 11 -17 73 -26 89 -13 11 9 12 8 7 -4 -5 -15 -2 -15 25 -6 17
6 31 15 31 21 0 6 6 8 14 5 8 -3 16 0 18 8 2 11 8 11 33 0 l30 -13 -27 -1
c-31 -1 -45 -16 -22 -25 22 -8 66 4 61 17 -2 6 2 27 9 46 13 39 15 40 164 59
51 7 53 8 33 20 -12 7 -49 15 -83 19 -52 5 -60 4 -60 -11z"/>
<path d="M27087 25808 c-66 -36 -81 -41 -97 -30 -29 18 -88 15 -118 -7 -15
-10 -34 -21 -42 -24 -8 -3 2 -6 22 -6 20 -1 40 4 43 9 11 17 24 11 31 -15 3
-14 10 -25 15 -25 5 0 6 6 3 14 -6 14 5 18 94 31 23 4 42 11 42 16 0 5 9 9 20
9 11 0 20 4 20 9 0 12 37 24 49 17 4 -3 6 -17 4 -30 -4 -18 -13 -26 -32 -28
l-26 -3 23 -22 c27 -28 42 -29 35 -5 -4 16 2 19 48 21 29 1 55 3 57 6 3 2 13
0 24 -6 14 -8 19 -18 15 -35 -5 -26 -6 -26 41 -30 17 -1 32 2 32 8 0 11 -105
118 -116 118 -4 0 -17 11 -30 25 -33 35 -66 31 -157 -17z"/>
<path d="M0 25828 c0 -9 13 -21 30 -28 36 -15 39 -30 6 -30 -24 0 -36 -16 -36
-51 0 -16 7 -19 43 -19 23 0 51 7 61 15 23 17 72 20 81 5 3 -5 19 -10 36 -10
27 0 44 20 17 20 -7 1 -3 9 10 19 12 11 22 22 22 25 0 14 -31 5 -47 -13 -15
-18 -19 -19 -45 -5 -16 8 -26 19 -23 23 7 12 -49 31 -88 31 -17 0 -39 7 -49
17 -16 14 -18 14 -18 1z"/>
<path d="M860 25710 c22 -14 5 -23 -55 -28 -30 -2 -53 -8 -50 -12 8 -13 77
-24 131 -21 30 2 55 -2 59 -8 7 -13 2 -15 -83 -31 -47 -10 -60 -16 -52 -25 8
-9 4 -14 -12 -19 l-23 -7 24 -10 c29 -11 86 -2 102 17 6 8 22 14 35 14 12 0
26 5 29 10 13 22 115 7 115 -16 0 -8 5 -14 10 -14 21 0 9 -21 -17 -31 -22 -8
-24 -12 -13 -19 17 -11 253 -14 263 -4 4 4 -8 14 -25 24 -63 33 -48 42 58 35
55 -4 114 -11 132 -17 42 -13 252 -19 252 -7 0 5 -12 11 -27 15 -16 3 -39 10
-53 14 -21 7 -18 9 20 10 36 0 41 3 28 11 -31 17 -21 32 16 25 20 -4 37 -2 41
4 3 5 -3 10 -14 10 -11 0 -32 5 -45 12 -21 9 -32 8 -61 -8 -33 -18 -36 -18
-64 -1 -32 19 -71 23 -71 7 0 -5 10 -10 23 -10 22 0 61 -19 42 -20 -5 -1 1 -6
14 -11 18 -7 21 -13 13 -21 -14 -14 -108 -21 -130 -9 -9 5 -68 12 -131 16
-100 6 -113 5 -108 -8 5 -12 -5 -15 -52 -14 l-58 1 -1 33 c-1 30 1 33 28 33
17 0 30 5 30 10 0 6 -17 10 -37 9 -21 -1 -48 1 -61 5 -19 6 -21 10 -11 22 17
20 10 24 -52 29 -30 2 -46 2 -36 -1 10 -3 30 -12 45 -21 25 -14 22 -14 -51
-10 -43 2 -83 9 -90 16 -8 8 -7 11 7 11 9 0 14 5 11 10 -3 6 -18 10 -33 10
-21 0 -23 -3 -12 -10z"/>
<path d="M116 25692 c16 -15 114 -42 129 -36 11 4 15 -1 15 -16 0 -20 -4 -22
-37 -17 -21 3 -49 8 -63 12 -25 5 -15 0 29 -17 16 -6 21 -12 14 -19 -7 -7 -23
-5 -49 5 -50 19 -154 30 -154 16 0 -5 6 -10 13 -10 8 0 7 -3 -3 -10 -8 -5 -11
-12 -7 -16 3 -4 13 -2 20 4 10 9 22 8 45 0 18 -7 32 -16 32 -20 0 -4 13 -14
30 -23 25 -13 65 -18 196 -24 7 -1 14 -10 17 -21 4 -16 11 -18 40 -13 45 7
143 -23 162 -51 13 -18 18 -19 49 -8 35 13 89 2 84 -17 -4 -11 6 -13 27 -5 23
9 46 -4 43 -23 -2 -14 5 -19 31 -21 31 -3 33 -2 29 22 -4 21 -1 27 18 32 32 8
30 21 -3 28 -93 18 -103 19 -103 2 0 -21 -18 -20 -58 4 -18 11 -43 20 -57 20
-13 0 -39 6 -57 14 -18 7 -76 21 -128 31 -142 26 -142 25 -130 40 8 10 4 14
-16 19 -20 5 -23 10 -15 20 10 12 20 11 61 -2 43 -14 53 -14 76 -2 15 8 57 15
97 15 40 1 81 4 92 9 13 4 27 1 40 -9 19 -16 19 -16 -12 -11 -19 3 -33 1 -33
-4 0 -6 6 -10 13 -11 6 0 23 -2 37 -3 24 -3 50 14 50 31 0 20 -92 35 -169 29
-52 -5 -87 -3 -107 5 -79 32 -63 28 -157 33 -32 1 -63 8 -69 14 -7 7 -26 12
-42 12 -17 0 -26 -4 -20 -8z"/>
<path d="M29776 25665 c-12 -33 -68 -36 -152 -10 -16 5 -23 2 -27 -14 -3 -13
0 -21 8 -21 7 0 15 -9 18 -21 4 -15 12 -19 34 -17 19 2 28 -2 28 -12 1 -25 15
-40 38 -39 17 1 18 2 5 6 -30 8 -20 26 12 21 26 -4 30 -1 30 18 0 13 11 29 27
39 25 17 29 17 55 2 28 -16 28 -16 28 12 0 20 -7 31 -25 39 -36 17 -72 15 -79
-3z"/>
<path d="M2465 25663 c-50 -11 -45 -18 20 -25 39 -5 87 -10 108 -10 22 -1 37
-7 37 -14 0 -21 30 -44 59 -44 31 0 52 16 44 36 -4 10 6 12 47 7 40 -5 52 -3
49 6 -11 32 -174 55 -218 32 -12 -7 -31 -5 -57 4 -40 15 -55 16 -89 8z"/>
<path d="M28340 25643 c-14 -7 -32 -13 -41 -13 -9 0 -34 -7 -55 -16 -26 -11
-39 -13 -42 -5 -2 6 -8 11 -13 11 -6 0 -7 -4 -4 -10 4 -6 -28 -10 -90 -10 -57
0 -94 -4 -90 -9 16 -26 205 -56 205 -33 0 5 34 17 76 28 74 18 89 28 82 56 -2
12 -7 12 -28 1z"/>
<path d="M29010 25573 c-36 -13 -74 -27 -85 -30 -11 -2 -29 -8 -40 -13 -11 -4
-40 -14 -64 -21 -55 -17 -34 -27 58 -28 55 -1 62 -3 51 -16 -10 -12 -2 -14 60
-12 68 2 73 0 94 -25 18 -24 29 -28 69 -28 35 0 47 4 47 15 0 9 -9 15 -21 15
-30 0 -99 22 -99 31 0 4 -3 14 -6 23 -4 11 2 19 20 26 14 5 32 21 38 36 11 23
10 28 -7 40 -24 18 -37 17 -115 -13z"/>
<path d="M5263 25507 c-13 -13 -23 -31 -23 -41 0 -10 -8 -25 -17 -33 -16 -12
6 -13 157 -7 96 3 177 8 179 10 18 16 -75 60 -149 70 -28 4 -53 11 -56 15 -10
17 -69 8 -91 -14z"/>
<path d="M0 25455 c0 -23 5 -35 14 -35 21 0 67 -26 59 -33 -3 -4 -21 -7 -40
-7 -40 0 -42 -14 -6 -35 l28 -16 -27 6 c-21 4 -28 1 -28 -9 0 -10 16 -17 48
-22 26 -4 76 -17 112 -29 36 -13 86 -26 113 -29 26 -4 47 -11 47 -15 0 -5 23
-12 52 -15 28 -4 60 -12 70 -17 29 -15 169 -49 179 -43 5 3 19 -2 31 -10 12
-9 30 -16 40 -16 10 0 18 -4 18 -10 0 -5 -9 -10 -19 -10 -11 0 -23 5 -26 10
-3 6 -23 10 -43 10 -20 0 -53 4 -72 10 -21 6 -38 6 -44 0 -5 -5 2 -12 20 -16
16 -4 34 -11 40 -15 6 -5 37 -14 68 -20 48 -8 62 -8 81 5 13 9 49 19 79 22 31
4 56 10 56 13 0 8 -167 41 -208 41 -18 0 -55 9 -84 20 -29 11 -70 20 -90 20
-53 0 -47 13 11 27 44 10 55 9 111 -13 33 -14 66 -24 72 -22 6 2 -3 10 -20 17
-30 13 -43 31 -22 31 6 0 10 5 10 10 0 6 -13 10 -29 10 -36 0 -48 15 -24 29
16 9 16 10 1 11 -9 0 -19 -4 -23 -9 -7 -12 -213 -13 -240 -1 -18 8 -18 9 -2 9
10 1 20 8 23 16 4 9 19 15 40 15 19 0 34 5 34 10 0 14 -44 30 -81 30 -16 0
-29 4 -29 8 0 5 -12 15 -27 22 -18 8 -23 14 -15 17 8 3 24 0 37 -7 13 -7 34
-10 47 -7 14 4 30 0 43 -12 22 -19 112 -52 142 -50 12 0 9 5 -12 14 -29 14
-29 14 -5 15 21 0 22 2 10 13 -23 21 -146 50 -177 42 -21 -5 -31 -1 -45 17
l-18 23 -24 -26 c-21 -25 -27 -26 -67 -18 -58 11 -59 11 -57 -3 4 -17 -83 -10
-101 7 -13 12 -11 16 10 24 l24 9 -28 11 c-38 15 -37 16 -37 -24z"/>
<path d="M1774 25459 c-15 -5 -11 -9 21 -18 22 -6 45 -11 51 -11 7 0 14 -8 17
-19 3 -14 17 -20 63 -24 101 -10 361 -16 329 -7 -16 4 -46 15 -65 23 -35 16
-35 16 60 17 167 1 76 18 -135 25 -110 4 -228 10 -261 14 -34 4 -70 4 -80 0z"/>
<path d="M28005 25373 c-11 -2 -29 -8 -40 -13 -11 -5 -50 -11 -87 -14 -37 -3
-78 -12 -91 -20 -13 -9 -43 -18 -67 -21 -58 -8 -60 -12 -11 -25 22 -6 43 -15
46 -20 10 -17 47 -11 52 8 3 13 22 22 66 31 87 17 137 33 137 43 0 4 12 8 28
8 15 1 41 7 57 15 l30 13 -50 0 c-27 0 -59 -2 -70 -5z"/>
<path d="M1210 25350 c10 -6 -6 -8 -48 -6 -34 1 -62 -1 -62 -6 0 -13 49 -29
73 -23 51 13 248 -36 248 -61 1 -5 5 -15 11 -21 8 -9 7 -13 -3 -13 -18 0 -109
14 -219 33 -47 8 -127 18 -179 22 -111 8 -122 11 -113 33 5 14 3 15 -9 5 -11
-9 -27 -8 -69 3 -58 15 -98 11 -70 -6 13 -8 12 -10 -3 -10 -10 0 -15 -4 -12
-10 3 -5 20 -10 36 -10 17 0 43 -7 58 -14 39 -20 127 -31 135 -17 4 6 21 11
39 11 28 0 29 -1 12 -13 -17 -13 -17 -14 6 -20 13 -4 89 -14 169 -22 80 -9
161 -20 180 -25 19 -6 51 -10 70 -9 l35 1 -40 12 c-32 11 -37 15 -22 21 10 4
42 4 70 0 111 -15 163 -17 150 -4 -7 7 -53 14 -108 17 -101 5 -112 9 -50 17
53 6 54 12 4 27 l-44 13 48 3 c26 2 47 7 47 13 0 5 12 9 27 9 42 0 14 20 -37
27 -36 5 -42 4 -37 -9 9 -24 -71 -33 -114 -14 l-34 14 44 1 c61 1 49 8 -45 26
-91 17 -168 20 -144 5z"/>
<path d="M2299 25324 c-10 -13 -27 -15 -74 -12 -53 4 -57 3 -31 -7 28 -12 28
-12 -25 -20 -65 -10 -200 -13 -214 -4 -5 4 -57 10 -115 14 l-105 7 25 -22 c20
-18 33 -21 70 -17 25 3 128 2 230 -3 199 -9 258 -1 296 41 20 22 19 24 -17 32
-18 5 -31 2 -40 -9z"/>
<path d="M2403 25296 c9 -7 17 -19 17 -25 0 -9 10 -10 31 -6 29 7 30 5 24 -16
-8 -23 -8 -23 20 -5 15 10 30 14 34 9 3 -5 15 -13 25 -17 16 -5 17 -9 6 -19
-10 -9 -14 -9 -17 1 -4 9 -13 5 -31 -13 -18 -18 -31 -23 -46 -19 -37 11 -39
10 -46 -23 -4 -18 -4 -33 1 -33 16 0 64 25 86 46 15 14 31 20 45 16 13 -3 26
1 33 11 17 23 77 47 118 47 20 0 40 7 48 16 12 15 6 16 -72 9 -80 -7 -185 6
-214 25 -5 4 -26 7 -45 8 -31 2 -33 0 -17 -12z"/>
<path d="M666 25263 c-3 -4 16 -17 44 -30 27 -12 50 -25 50 -28 0 -3 -19 -2
-42 1 -34 5 -41 4 -31 -6 16 -17 84 -29 166 -30 50 0 69 -4 73 -15 10 -25 104
-65 155 -65 27 0 71 -5 99 -11 57 -12 122 -3 85 11 -11 5 -44 9 -73 9 -29 1
-72 5 -95 11 -23 5 -64 12 -92 16 l-50 7 35 10 c23 6 51 6 80 -1 25 -5 71 -10
102 -11 31 -1 78 -5 105 -10 56 -11 99 -5 107 15 4 10 -3 14 -22 15 -84 4
-133 8 -182 13 -30 3 -100 7 -155 9 -104 4 -149 13 -140 27 6 10 -30 20 -73
20 -39 0 -102 25 -102 39 0 12 -33 15 -44 4z"/>
<path d="M74 25245 c-4 -9 -16 -12 -40 -8 -20 3 -34 1 -34 -5 0 -12 24 -22 55
-22 13 0 26 -4 30 -9 3 -5 29 -17 58 -26 28 -10 56 -21 62 -26 15 -15 -38 -10
-68 6 -23 12 -121 45 -134 45 -2 0 -3 -7 -3 -14 0 -9 24 -24 60 -37 33 -12 60
-25 60 -30 0 -10 -72 0 -85 12 -20 19 -35 9 -35 -26 0 -28 4 -35 19 -35 10 0
24 7 31 15 11 14 15 14 37 0 29 -19 100 -15 95 5 -2 9 9 11 45 6 97 -14 104
-16 93 -35 -12 -23 6 -41 40 -40 23 0 23 1 -7 12 -22 8 -30 16 -24 25 7 12 59
5 201 -28 89 -20 105 -23 95 -13 -5 6 -41 18 -80 27 -38 9 -90 22 -115 27 -55
13 -75 29 -37 29 53 0 18 33 -48 46 -27 5 -36 4 -31 -5 4 -6 13 -11 21 -11 7
0 16 -7 19 -16 5 -13 -1 -14 -41 -8 -25 4 -58 13 -72 20 l-26 14 38 0 c20 0
37 4 37 9 0 12 -111 51 -144 51 -53 0 -89 35 -43 42 l22 3 -23 7 c-15 4 -25 2
-28 -7z"/>
<path d="M5066 25252 c-6 -5 -32 -8 -169 -19 -43 -3 -80 -10 -83 -14 -3 -5 1
-9 8 -10 23 -1 -26 -18 -54 -18 -34 -1 -37 16 -5 22 13 3 8 5 -15 6 -21 0 -38
-3 -38 -7 0 -5 -18 -14 -40 -21 -22 -6 -52 -23 -67 -36 l-28 -24 31 -1 c19 0
34 6 38 15 4 11 20 15 55 15 27 0 53 5 56 10 4 7 11 7 18 2 7 -5 58 -12 115
-16 97 -7 103 -6 100 11 -3 15 -13 18 -57 16 -34 -2 -61 3 -74 12 -16 11 -17
15 -6 19 20 6 204 18 264 16 27 0 46 2 43 6 -10 9 -86 23 -92 16z"/>
<path d="M27250 25237 c-19 -4 -50 -13 -69 -19 -18 -5 -83 -10 -144 -10 -103
1 -147 -7 -147 -27 0 -8 271 -5 375 3 56 5 110 29 93 43 -19 15 -68 20 -108
10z"/>
<path d="M28255 25219 c-38 -4 -86 -12 -105 -17 -32 -8 -33 -9 -13 -16 13 -4
33 -1 50 7 29 14 123 12 123 -3 0 -5 -14 -11 -31 -15 -17 -4 -28 -10 -24 -13
9 -10 125 -3 164 10 28 9 35 8 43 -6 11 -19 39 -21 56 -4 20 20 14 38 -13 38
-13 0 -50 7 -82 15 -61 16 -62 16 -168 4z"/>
<path d="M1570 25121 c0 -6 9 -11 21 -11 11 0 17 -4 14 -10 -3 -5 -41 -10 -84
-10 -97 0 -141 -8 -141 -26 0 -8 -8 -14 -18 -14 -10 0 -22 -4 -27 -9 -6 -5
-21 -11 -34 -13 -45 -6 -36 -27 11 -26 24 0 85 -3 136 -7 67 -6 92 -5 92 4 0
7 -21 11 -59 11 -65 0 -84 12 -50 30 14 8 50 10 107 6 76 -6 83 -5 72 9 -20
25 -4 29 42 12 24 -8 59 -19 78 -23 31 -6 33 -5 21 10 -12 14 -10 16 20 16 19
0 46 -7 61 -14 23 -12 46 -13 118 -5 51 5 107 5 128 1 47 -11 81 -2 60 16 -23
18 -90 25 -123 11 -16 -7 -34 -11 -40 -9 -5 1 -34 2 -63 2 -29 -1 -65 3 -80 9
-25 10 -26 11 -8 21 12 7 61 8 140 3 75 -4 130 -3 146 4 20 8 5 10 -70 11 -52
1 -179 3 -282 6 -129 4 -188 2 -188 -5z"/>
<path d="M29660 25013 c-1 -34 -25 -53 -69 -53 -22 0 -82 -7 -132 -16 -88 -15
-91 -15 -125 5 -37 22 -94 28 -94 10 0 -6 14 -9 33 -7 26 2 32 -1 32 -16 0
-23 -60 -60 -86 -53 -9 3 -23 1 -30 -4 -10 -6 -6 -9 13 -9 15 0 30 -4 33 -10
3 -6 22 1 45 15 40 25 100 34 100 15 0 -5 -7 -10 -15 -10 -16 0 -31 -43 -20
-59 3 -6 -1 -11 -11 -11 -10 0 -15 -3 -11 -6 8 -8 48 6 43 15 -3 4 9 5 27 3
27 -4 29 -6 12 -13 -18 -7 -17 -8 6 -8 31 -1 45 31 23 50 -36 29 4 64 61 53
27 -5 36 -3 41 10 4 11 18 16 44 16 45 0 57 -12 35 -33 -24 -25 -18 -27 29
-10 35 13 42 20 38 36 -3 10 1 23 9 28 22 13 32 11 25 -7 -9 -23 3 -37 19 -24
8 7 44 12 80 13 l65 2 0 38 c0 42 -15 47 -64 22 -40 -21 -76 -20 -76 4 0 13
-10 20 -31 25 -45 9 -49 8 -49 -11z"/>
<path d="M390 25005 c0 -23 -32 -34 -81 -28 -33 4 -41 3 -33 -6 11 -12 22 -15
98 -26 31 -5 46 -4 46 4 0 13 75 14 105 1 23 -10 13 -13 -30 -10 -26 2 -27 0
-16 -14 8 -9 29 -16 49 -16 20 0 51 -6 70 -12 30 -11 35 -11 44 6 9 16 19 18
82 12 95 -9 136 -17 136 -26 0 -4 -44 -5 -97 -3 -73 3 -94 1 -81 -7 10 -6 84
-13 165 -16 81 -3 180 -12 220 -20 89 -17 91 -17 67 1 -17 13 -13 14 46 16 70
1 121 11 105 21 -21 12 -185 20 -185 9 0 -6 -9 -11 -20 -11 -14 0 -20 7 -20
22 0 21 2 21 108 14 220 -13 367 -19 362 -13 -3 3 -68 10 -145 16 -170 14
-283 27 -437 52 -64 10 -124 19 -135 19 -35 0 8 -18 74 -30 35 -7 63 -15 63
-19 0 -4 -20 -13 -45 -20 -39 -12 -48 -11 -63 1 -21 19 -77 38 -108 38 -18 0
-22 -4 -17 -17 5 -13 2 -15 -18 -10 -13 4 -33 7 -43 7 -20 0 -20 0 0 14 18 14
18 15 -9 21 -15 4 -43 4 -63 0 -26 -4 -41 -2 -53 9 -16 14 -88 35 -123 36 -10
0 -18 -7 -18 -15z"/>
<path d="M105 24999 c-5 -7 -25 -8 -56 -4 -27 4 -49 4 -49 1 0 -9 70 -36 94
-36 12 0 26 -4 32 -9 5 -4 38 -14 74 -20 36 -7 92 -21 125 -31 33 -11 89 -24
125 -30 35 -7 73 -16 82 -21 11 -6 25 -6 35 -1 24 14 -67 52 -122 52 -23 0
-59 7 -78 15 -20 8 -56 15 -80 15 -24 0 -48 5 -55 12 -6 6 -33 19 -59 28 -26
10 -47 22 -45 29 3 14 -15 15 -23 0z"/>
<path d="M1359 24880 c-11 -7 -10 -10 4 -16 35 -13 4 -24 -69 -24 -41 0 -74
-4 -74 -9 0 -13 64 -20 103 -12 19 5 58 5 87 0 77 -12 305 -10 292 3 -6 6 -61
9 -133 9 -68 -1 -119 2 -115 6 4 4 33 8 64 9 247 3 303 5 298 13 -3 5 -94 10
-201 10 -108 1 -206 6 -219 10 -12 5 -29 5 -37 1z"/>
<path d="M768 24774 c-10 -3 -18 -9 -18 -14 0 -14 37 -18 86 -9 26 5 50 6 53
3 3 -3 -7 -17 -24 -30 l-30 -25 26 3 c14 1 37 -5 52 -15 30 -19 47 -22 47 -7
0 6 -3 9 -7 9 -23 -4 -33 3 -33 22 0 18 4 20 23 14 12 -4 33 -7 47 -6 67 3
131 1 141 -4 7 -5 5 -13 -6 -25 -26 -28 -10 -40 55 -40 51 0 58 -2 53 -18 -3
-12 -22 -23 -51 -31 -26 -7 -41 -15 -34 -18 25 -10 60 7 107 52 47 44 53 56
16 33 -15 -9 -22 -8 -35 5 -23 22 -21 24 27 29 47 5 87 -8 87 -29 0 -7 11 -13
26 -13 14 0 23 4 20 9 -3 5 4 11 15 14 12 3 18 10 15 15 -3 5 11 13 31 17 29
5 40 3 50 -10 9 -13 19 -16 40 -10 15 4 57 7 93 6 51 -1 62 1 53 10 -8 8 -62
15 -147 18 -120 5 -138 4 -157 -12 -13 -10 -26 -14 -33 -9 -25 19 -121 34
-149 23 -16 -6 -38 -11 -50 -11 -20 0 -20 0 -1 15 18 13 16 14 -28 15 -26 0
-59 5 -75 11 -30 11 -256 21 -285 13z"/>
<path d="M2062 24760 c-12 -12 -22 -29 -22 -39 0 -13 -13 -22 -45 -31 -24 -7
-50 -19 -56 -26 -13 -16 -64 -19 -54 -4 3 6 -1 10 -9 10 -9 0 -16 -6 -16 -12
-1 -8 -6 -6 -14 5 -11 14 -22 17 -50 12 -24 -5 -36 -3 -36 4 0 6 -12 11 -27
10 -16 0 -22 -3 -15 -6 24 -9 12 -23 -21 -23 -31 0 -77 -23 -77 -38 0 -4 32
-8 70 -9 58 -2 70 1 70 14 0 13 10 15 58 10 31 -3 67 -8 79 -12 15 -5 27 -1
42 14 13 13 34 21 56 21 27 0 39 6 52 27 16 23 44 93 39 93 -1 0 -12 -9 -24
-20z"/>
<path d="M591 24681 c-9 -16 -8 -18 9 -14 28 7 25 0 -11 -26 l-31 -23 7 23 c7
22 7 22 -9 6 -21 -21 -20 -21 -55 -2 -46 23 -93 15 -129 -25 -58 -64 -64 -72
-57 -78 3 -4 10 0 15 8 8 13 11 12 23 -4 13 -18 14 -18 33 1 10 11 30 26 43
33 19 10 22 17 17 43 -6 29 -5 29 12 14 10 -10 22 -14 27 -10 4 5 5 0 1 -11
-6 -17 -3 -18 26 -12 18 4 43 9 54 10 21 3 94 55 94 67 0 6 -35 19 -52 19 -4
0 -12 -9 -17 -19z"/>
<path d="M211 24567 c-30 -12 -62 -28 -72 -38 -9 -9 -23 -19 -30 -21 -8 -3
-11 -8 -8 -12 4 -4 23 3 43 15 38 22 52 9 19 -17 -16 -12 -15 -13 11 -14 24 0
27 -2 16 -15 -10 -12 -10 -18 0 -30 12 -14 8 -15 -28 -9 -35 5 -45 3 -67 -17
-36 -35 -31 -42 23 -34 67 10 114 40 106 69 -4 16 0 25 10 29 8 3 24 26 36 52
11 25 25 45 30 45 6 0 10 5 10 10 0 15 -39 10 -99 -13z"/>
<path d="M1662 24525 c-32 -28 -46 -34 -67 -29 -18 4 -46 -4 -100 -31 -41 -21
-75 -42 -75 -47 0 -5 4 -7 9 -3 6 3 14 -2 19 -11 9 -16 14 -15 56 12 25 16 46
32 46 37 0 4 18 7 39 7 28 0 44 6 53 19 13 18 25 21 109 21 31 0 37 3 41 25 7
32 3 35 -47 35 -33 0 -50 -7 -83 -35z"/>
<path d="M25430 24531 c-58 -5 -80 -11 -96 -27 -12 -12 -52 -36 -90 -54 -38
-17 -78 -37 -89 -43 -11 -6 -42 -14 -70 -17 -35 -3 -50 -9 -50 -20 0 -9 7 -14
20 -12 11 2 50 3 87 3 68 0 88 9 69 33 -13 16 -4 26 22 26 11 0 28 6 36 14 9
7 44 28 78 47 57 30 65 32 95 21 44 -15 217 -13 265 4 47 16 42 17 -77 18 -52
1 -102 4 -110 7 -8 3 -49 3 -90 0z"/>
<path d="M3695 24497 c-93 -36 -131 -41 -182 -28 -27 7 -70 16 -98 21 -27 4
-60 11 -72 15 -18 6 -23 3 -23 -9 0 -11 -4 -14 -12 -9 -7 4 -21 9 -31 10 -25
4 -100 -22 -105 -36 -5 -14 25 -15 33 -1 3 6 11 10 16 10 6 0 7 -4 4 -10 -11
-18 45 -23 64 -6 25 23 29 20 25 -14 -2 -16 0 -30 4 -30 4 0 13 14 20 30 15
32 36 39 46 15 3 -8 12 -15 20 -15 8 0 17 -6 20 -12 3 -10 8 -9 18 4 11 13 31
16 109 15 75 -2 100 2 121 15 18 12 37 16 57 12 27 -6 31 -4 31 14 0 30 -9 31
-65 9z"/>
<path d="M910 24470 c-19 -4 -29 -8 -22 -9 15 -1 16 -23 1 -38 -8 -8 -19 -8
-40 0 -22 9 -34 9 -50 -1 -11 -7 -43 -17 -71 -22 -54 -11 -81 -26 -72 -41 9
-15 56 -10 71 9 13 16 14 15 8 -5 -6 -20 -3 -22 30 -21 20 1 31 4 25 8 -17 10
-1 38 26 44 13 4 35 4 49 0 14 -3 37 1 56 10 18 9 38 16 44 16 13 0 26 45 17
55 -6 6 -25 5 -72 -5z"/>
<path d="M28944 24450 c-12 -5 -25 -13 -29 -19 -3 -6 -19 -11 -35 -11 -37 0
-47 -16 -20 -30 28 -15 9 -40 -31 -40 -34 0 -38 -16 -6 -26 51 -17 98 -4 156
43 63 52 72 68 39 75 -13 3 -30 8 -38 11 -8 3 -25 2 -36 -3z"/>
<path d="M4334 24289 c-15 -17 -16 -22 -4 -29 12 -7 12 -11 0 -25 -12 -15 -12
-19 5 -31 28 -21 57 -17 87 11 30 27 50 33 42 11 -4 -11 9 -13 68 -9 40 2 84
8 98 13 14 5 52 12 85 15 59 6 86 18 72 32 -14 13 -210 6 -255 -10 -23 -8 -45
-11 -48 -6 -3 5 -19 9 -36 9 -16 0 -41 9 -55 20 -32 25 -36 25 -59 -1z"/>
<path d="M28615 24303 c-108 -5 -295 -27 -295 -34 0 -4 -10 -9 -22 -11 -13 -2
-21 -7 -18 -13 7 -13 134 -9 160 5 11 6 45 13 75 16 46 5 55 3 64 -14 9 -17
16 -19 40 -12 15 4 37 13 48 19 23 12 38 52 20 49 -7 -1 -39 -3 -72 -5z"/>
<path d="M1748 24223 c-12 -24 -19 -28 -58 -28 -51 0 -97 -27 -120 -69 -14
-28 -25 -32 -35 -16 -11 18 -35 11 -35 -11 0 -12 -11 -34 -25 -51 -39 -46 -32
-60 20 -36 20 9 25 17 21 34 -4 16 -1 23 16 27 29 8 35 1 20 -23 -16 -25 -15
-30 3 -30 8 0 15 9 15 20 0 11 7 20 16 20 8 0 13 -4 10 -8 -3 -4 26 -9 65 -10
56 -2 69 0 69 13 0 11 -11 15 -44 15 -44 0 -69 21 -43 37 54 35 72 35 98 -1 4
-4 18 0 32 9 15 9 31 13 38 9 7 -4 10 -2 7 7 -6 17 -57 24 -71 10 -6 -6 -14
-5 -23 4 -18 17 -18 35 0 35 7 0 19 7 26 15 9 11 16 11 29 3 23 -14 91 -2 91
16 0 7 15 18 33 24 28 9 20 10 -55 11 -85 1 -87 1 -100 -26z"/>
<path d="M624 24185 c3 -8 1 -26 -4 -40 -8 -21 -7 -25 10 -25 10 0 30 4 44 10
23 9 26 7 26 -14 0 -26 -34 -41 -64 -30 -9 3 -24 3 -33 0 -15 -6 -15 -8 -3
-16 23 -15 94 -12 116 5 10 8 26 15 35 15 9 0 24 9 34 20 10 11 31 20 46 20
15 0 30 4 34 9 10 17 -37 24 -134 22 -78 -1 -92 1 -82 12 12 15 5 27 -17 27
-8 0 -12 -6 -8 -15z"/>
<path d="M60 24143 c-52 -5 -76 -21 -43 -29 32 -9 36 -31 7 -38 -20 -5 -24
-12 -24 -44 0 -21 4 -32 8 -25 4 7 28 19 52 28 25 9 59 24 77 35 26 15 39 17
60 9 14 -5 34 -7 42 -4 14 6 14 7 -1 16 -10 6 -18 16 -18 24 0 8 -5 17 -12 21
-14 9 -87 12 -148 7z"/>
<path d="M891 24088 c-30 -10 -63 -17 -73 -15 -13 4 -17 0 -15 -15 1 -15 -8
-24 -38 -36 -47 -19 -119 -82 -94 -82 9 0 22 7 29 15 7 8 23 15 37 15 30 0 85
28 78 40 -9 15 9 19 46 11 42 -9 60 -4 52 15 -3 8 1 14 10 14 8 0 17 -4 19
-10 5 -15 78 11 89 32 12 23 0 23 -17 1 -12 -17 -13 -17 -14 -1 0 16 -29 39
-47 37 -4 0 -32 -10 -62 -21z"/>
<path d="M284 24063 c8 -27 -104 -79 -166 -76 -34 2 -48 -2 -52 -14 -6 -15 -5
-15 40 4 7 3 10 -5 7 -21 -3 -14 -4 -26 -2 -26 2 0 28 9 57 20 66 25 97 25
129 1 19 -16 30 -18 49 -10 41 15 82 11 123 -13 33 -19 41 -20 55 -9 9 7 13
17 10 22 -3 5 1 6 9 3 8 -3 18 -1 22 5 3 6 1 11 -5 11 -20 0 2 22 37 36 39 17
35 34 -8 34 -24 0 -32 -7 -46 -35 -20 -42 -49 -54 -68 -28 -10 13 -10 22 -3
31 9 10 6 11 -16 2 -35 -13 -69 -13 -61 0 3 6 0 10 -8 10 -7 0 -19 -11 -25
-25 -12 -25 -45 -34 -57 -15 -3 6 -18 10 -33 10 l-27 0 25 19 c13 11 28 17 33
14 5 -3 24 -2 43 2 31 5 33 8 19 21 -8 8 -20 12 -27 8 -7 -5 -9 -2 -5 9 6 15
-11 27 -39 27 -10 0 -13 -6 -10 -17z"/>
<path d="M1283 24055 c-17 -12 -27 -13 -47 -4 -20 10 -28 9 -41 -5 -19 -19
-87 -21 -115 -4 -25 16 -38 3 -22 -23 15 -23 8 -41 -12 -33 -8 3 -17 1 -21 -5
-7 -13 35 -31 73 -31 24 0 25 1 7 13 -20 15 -12 42 10 33 8 -3 27 -1 42 3 16
5 39 4 51 0 14 -5 40 -4 65 2 23 6 52 11 65 11 27 0 28 8 3 36 -22 26 -30 27
-58 7z"/>
<path d="M29724 23910 c-32 -13 -39 -30 -15 -37 29 -7 26 -18 -7 -32 -25 -10
-46 -13 -110 -11 -13 1 -31 -8 -40 -19 -10 -12 -49 -29 -92 -41 -41 -11 -81
-27 -90 -36 -14 -15 -12 -16 20 -9 19 4 61 9 93 12 47 4 57 2 57 -11 0 -19 9
-20 45 -6 18 7 25 15 21 25 -9 25 32 57 81 63 25 3 47 11 50 18 3 8 9 14 14
14 14 0 49 33 49 47 0 7 5 13 11 13 5 0 7 5 4 10 -7 12 -62 12 -91 0z"/>
<path d="M26515 23823 c-14 -16 -27 -35 -30 -44 -11 -33 -47 -42 -123 -30 -92
14 -91 15 -84 -11 5 -21 4 -21 -19 -5 -13 9 -31 17 -41 17 -9 0 -22 8 -27 18
-6 9 -11 13 -11 9 0 -5 10 -23 22 -40 13 -18 22 -33 20 -34 -10 -11 2 -23 23
-23 14 0 25 4 25 10 0 18 45 21 89 5 42 -14 45 -14 58 5 14 20 49 27 55 11 4
-11 48 5 48 18 0 6 -7 8 -15 5 -8 -4 -15 -1 -15 5 0 7 7 14 15 17 8 4 15 15
15 25 0 10 5 19 10 19 6 0 22 7 36 17 19 12 22 18 12 24 -22 14 -36 10 -63
-18z"/>
<path d="M660 23833 c-8 -3 -26 -17 -39 -30 -13 -13 -36 -26 -50 -29 -54 -11
-125 -39 -128 -51 -7 -20 46 -28 76 -11 14 9 44 16 66 16 44 -1 119 37 108 55
-3 5 -2 7 4 4 12 -8 83 13 83 25 0 8 -20 11 -57 8 -13 -1 -23 3 -23 9 0 12
-15 13 -40 4z"/>
<path d="M26780 23653 c-8 -2 -29 -11 -47 -19 -38 -17 -57 -18 -47 -2 5 8 -2
9 -27 4 -19 -3 -35 -11 -37 -16 -2 -6 -12 -10 -23 -10 -10 0 -19 -7 -19 -15 0
-12 4 -13 19 -6 14 8 22 7 30 -3 7 -8 23 -17 37 -20 32 -8 29 -42 -4 -39 -12
2 -22 -2 -22 -7 0 -6 23 -10 50 -10 36 0 50 4 50 14 0 7 -9 16 -20 19 -12 3
-20 14 -20 26 0 18 3 20 19 11 11 -5 31 -10 44 -10 21 0 24 4 21 32 -2 17 -1
29 2 25 9 -9 65 14 58 24 -6 10 -39 11 -64 2z"/>
<path d="M43 23393 c-45 -16 -57 -33 -23 -33 11 0 23 -7 26 -15 4 -8 13 -15
21 -15 8 0 13 -6 11 -12 -6 -18 -59 -22 -69 -6 -6 9 -9 2 -9 -19 0 -27 5 -34
26 -39 24 -6 95 10 119 26 19 14 65 20 65 10 0 -5 9 -10 20 -10 11 0 20 5 20
10 0 6 -9 10 -20 10 -11 0 -20 5 -20 10 0 15 -29 12 -46 -5 -17 -16 -44 -20
-44 -6 0 4 12 21 26 36 25 27 26 27 64 12 35 -13 80 -13 80 0 0 9 -26 30 -59
46 -33 16 -36 16 -68 -3 -43 -25 -56 -25 -48 0 8 24 -9 25 -72 3z"/>
<path d="M381 23172 c-6 -11 -23 -23 -38 -27 l-28 -8 30 -6 c20 -5 29 -12 27
-23 -4 -26 12 -29 51 -8 20 11 56 25 82 31 40 10 48 9 65 -6 13 -12 18 -25 14
-41 -5 -19 -1 -26 21 -34 44 -17 62 -12 75 20 16 40 7 59 -27 59 -37 -1 -81 6
-90 14 -3 4 -18 7 -31 7 -14 0 -33 7 -43 16 -10 9 -35 18 -57 21 -33 4 -42 2
-51 -15z"/>
<path d="M250 23132 c0 -15 -77 -35 -110 -29 -43 9 -140 -34 -140 -62 0 -18 6
-21 44 -21 26 0 48 6 56 15 16 19 37 19 57 -1 14 -13 14 -17 2 -25 -8 -5 -21
-8 -30 -6 -9 1 -22 -3 -30 -9 -8 -6 -33 -16 -56 -23 -36 -10 -43 -16 -43 -37
l0 -26 30 25 c16 14 40 29 52 32 13 4 51 20 86 36 35 16 70 29 78 29 8 0 14 5
14 11 0 7 -12 9 -35 5 -28 -6 -35 -4 -35 9 0 8 7 15 15 15 8 0 15 5 15 10 0 6
11 15 25 20 26 10 32 24 15 35 -5 3 -10 2 -10 -3z"/>
<path d="M29332 22779 c-30 -11 -25 -28 16 -54 32 -21 41 -43 20 -49 -7 -2
-56 -9 -109 -15 -109 -12 -183 -34 -89 -26 30 2 66 8 79 11 44 13 18 -20 -40
-48 -60 -30 -85 -34 -91 -16 -3 7 -12 4 -27 -11 -12 -12 -34 -23 -49 -24 -17
-2 -28 -9 -30 -21 -8 -37 -76 -82 -141 -92 -42 -7 -59 -18 -42 -28 5 -3 43 -3
84 0 72 7 76 8 79 33 2 21 9 27 33 29 36 4 59 22 28 22 -12 0 -25 5 -28 10
-11 17 39 29 101 23 52 -4 63 -2 94 21 19 14 55 37 80 52 137 83 139 85 138
120 -1 22 -5 31 -14 27 -7 -2 -10 -11 -7 -19 3 -8 0 -14 -6 -14 -6 0 -11 5
-11 10 0 6 -10 10 -21 10 -19 0 -21 4 -15 30 6 32 3 34 -32 19z"/>
<path d="M185 22393 c-16 -3 -33 -10 -37 -16 -5 -8 -17 -8 -43 2 -23 8 -51 10
-73 6 l-37 -7 29 -15 30 -16 -27 -14 c-15 -7 -27 -18 -27 -23 0 -13 63 -13 76
-1 14 15 91 32 162 38 53 4 66 2 78 -14 12 -17 13 -16 14 10 0 20 -6 30 -24
37 -34 13 -86 18 -121 13z"/>
<path d="M6723 19983 c-24 -9 -13 -30 18 -37 17 -3 139 -6 270 -6 131 0 249
-4 263 -10 18 -6 26 -19 30 -42 6 -36 23 -914 31 -1623 3 -247 10 -659 15
-915 5 -256 12 -640 15 -855 3 -214 8 -462 10 -550 2 -88 7 -470 11 -850 6
-747 2 -852 -42 -1070 -42 -210 -35 -182 -101 -390 -14 -44 -29 -93 -34 -110
-4 -16 -26 -91 -48 -165 -49 -164 -50 -172 -14 -168 26 3 31 12 99 214 87 261
108 313 155 392 95 157 173 212 302 212 134 0 206 -20 325 -92 34 -21 69 -38
76 -38 8 0 16 -7 19 -14 3 -8 21 -23 39 -32 18 -9 85 -51 148 -92 266 -175
497 -272 753 -317 228 -39 352 -41 630 -8 75 9 141 13 145 9 4 -4 7 -220 7
-479 l0 -472 -273 -3 c-253 -2 -273 -4 -270 -20 3 -15 28 -17 278 -22 l275 -5
6 -360 c3 -198 7 -966 8 -1706 2 -1427 4 -1492 50 -1669 36 -140 48 -176 86
-261 103 -229 260 -397 470 -503 118 -59 221 -92 369 -117 157 -27 429 -23
571 9 376 85 697 332 831 639 37 86 79 245 70 268 -14 38 -31 11 -62 -100 -52
-187 -195 -348 -388 -435 -166 -75 -434 -83 -632 -19 -69 22 -192 94 -243 142
-125 118 -221 365 -236 611 -3 50 -7 859 -10 1798 l-4 1708 732 2 c643 3 732
5 732 18 0 13 -90 16 -727 20 -399 3 -728 7 -731 10 -8 9 -22 1004 -18 1310
l1 76 138 140 c193 197 296 337 413 559 151 287 242 582 290 935 15 114 15
538 0 675 -24 222 -71 454 -125 618 -144 434 -350 761 -636 1009 -147 128
-261 204 -424 283 -262 127 -473 179 -782 192 -287 11 -553 -41 -778 -154
-132 -66 -218 -129 -336 -245 -107 -104 -169 -183 -231 -293 l-34 -60 -6 51
c-4 27 -9 286 -13 575 -15 1146 -32 1796 -47 1821 -7 11 -134 13 -716 15 -389
1 -714 -1 -720 -4z m2717 -1904 c139 -20 315 -91 435 -174 97 -68 248 -222
329 -335 131 -184 258 -483 327 -769 76 -314 119 -721 119 -1111 0 -298 -45
-706 -105 -950 -113 -468 -298 -821 -534 -1020 -76 -64 -138 -110 -148 -110
-5 0 -27 -13 -51 -30 -70 -47 -240 -97 -391 -115 -85 -10 -324 14 -426 42
-364 102 -598 349 -689 726 -23 94 -28 127 -40 257 -3 25 -8 329 -11 675 -4
347 -8 671 -10 720 -2 50 -7 358 -11 685 -7 588 -7 596 15 702 69 337 235 580
480 702 214 107 454 142 711 105z"/>
<path d="M14325 18180 c-506 -57 -940 -285 -1308 -689 -318 -347 -511 -761
-596 -1276 -27 -163 -45 -417 -38 -523 17 -243 54 -491 93 -632 55 -195 153
-439 231 -575 43 -75 131 -214 143 -225 3 -3 31 -39 62 -81 81 -110 217 -249
333 -343 481 -387 1068 -540 1675 -436 327 56 680 229 965 474 546 469 867
1227 842 1986 -25 721 -255 1284 -712 1745 -310 312 -665 492 -1105 560 -123
19 -468 28 -585 15z m475 -65 c82 -21 236 -93 304 -142 175 -125 339 -348 444
-606 134 -324 213 -702 242 -1142 6 -93 15 -239 21 -324 14 -219 -7 -675 -42
-896 -53 -335 -70 -413 -140 -630 -161 -505 -447 -829 -819 -927 -114 -30
-355 -33 -470 -5 -141 35 -317 136 -430 247 -159 155 -323 444 -404 710 -107
357 -146 591 -187 1120 -11 146 -7 619 7 776 31 353 92 688 167 909 178 534
490 855 892 920 114 18 324 13 415 -10z"/>
<path d="M19895 18123 c-97 -12 -232 -42 -370 -84 -69 -20 -296 -141 -375
-200 -165 -121 -338 -320 -441 -505 -22 -40 -45 -76 -50 -80 -6 -3 -7 134 -3
390 6 336 5 396 -7 400 -8 2 -323 7 -701 10 -667 5 -720 3 -692 -24 5 -4 124
-11 264 -15 140 -3 258 -9 263 -12 4 -3 6 -190 2 -416 -7 -500 -14 -2012 -15
-3219 l0 -888 -247 -1 c-137 -1 -261 -4 -278 -8 -29 -7 -30 -7 -8 -19 16 -9
245 -12 960 -12 853 0 983 4 962 24 -2 3 -119 8 -259 12 -140 3 -257 8 -259
10 -3 3 -4 179 -4 392 5 2855 7 2994 42 3147 70 312 255 604 476 751 194 129
346 172 575 161 157 -8 258 -33 379 -94 79 -40 106 -61 168 -128 89 -97 151
-213 190 -360 l26 -100 -4 -860 c-2 -473 -4 -1168 -4 -1545 0 -726 -2 -679 44
-880 29 -124 123 -297 217 -399 119 -129 262 -196 464 -220 195 -23 387 20
550 124 129 82 246 220 314 370 50 109 85 293 54 283 -16 -6 -22 -21 -47 -112
-23 -82 -58 -144 -120 -209 -85 -91 -235 -127 -356 -85 -123 42 -191 112 -230
238 -26 86 -28 254 -16 1430 12 1154 9 1336 -30 1565 -63 369 -211 675 -422
871 -170 158 -401 260 -667 294 -72 9 -282 11 -345 3z"/>
<path d="M14330 12545 c-52 -7 -120 -18 -150 -24 -30 -7 -68 -14 -85 -16 -55
-8 -269 -82 -355 -123 -448 -214 -838 -607 -1069 -1077 -318 -646 -343 -1478
-64 -2155 153 -373 394 -689 700 -917 281 -211 612 -344 977 -393 139 -18 429
-13 564 10 104 17 156 29 307 69 191 51 518 230 721 394 74 60 229 217 300
304 158 193 340 530 427 793 171 515 170 1150 -2 1670 -152 457 -454 866 -836
1133 -259 181 -588 306 -885 337 -127 13 -432 10 -550 -5z m471 -50 c190 -38
408 -179 532 -344 274 -362 418 -823 477 -1529 10 -118 14 -700 6 -772 -3 -19
-7 -78 -11 -130 -11 -174 -65 -547 -86 -595 -4 -11 -13 -42 -18 -70 -45 -232
-151 -492 -280 -690 -202 -311 -502 -484 -842 -486 -453 -2 -797 277 -1012
822 -83 210 -173 590 -192 814 -2 22 -11 114 -21 205 -26 248 -24 745 4 1035
29 301 60 476 132 730 125 442 365 782 655 927 191 96 439 127 656 83z"/>
<path d="M19860 12539 c-117 -12 -337 -68 -443 -114 -109 -47 -250 -129 -332
-195 -143 -114 -299 -303 -399 -482 -21 -38 -42 -68 -48 -68 -5 0 -8 17 -7 38
1 20 2 196 1 390 l-2 352 -689 0 c-665 0 -722 -2 -696 -28 4 -4 121 -9 260
-12 139 -3 257 -9 262 -13 10 -10 18 -4175 8 -4334 l-7 -113 -258 0 c-226 0
-259 -2 -264 -16 -3 -9 -6 -18 -6 -20 0 -2 429 -4 954 -4 842 0 955 2 966 15
7 9 11 17 9 19 -2 3 -117 6 -256 8 -150 2 -256 7 -261 13 -6 6 -12 527 -15
1339 -4 1025 -8 1330 -17 1336 -9 5 -9 9 -1 11 8 3 12 102 15 334 4 352 8 396
62 578 24 81 97 255 113 267 3 3 15 21 25 40 88 162 296 346 467 413 241 96
524 92 746 -9 214 -98 349 -279 404 -542 37 -178 38 -166 -13 -214 -24 -24
-75 -65 -113 -93 -272 -197 -530 -546 -654 -883 -40 -106 -86 -286 -101 -386
-18 -120 -16 -412 4 -536 57 -361 155 -570 359 -767 147 -141 285 -222 502
-293 55 -18 109 -42 121 -54 11 -12 38 -74 59 -139 89 -275 226 -497 421 -688
125 -121 199 -173 360 -253 214 -106 378 -151 667 -183 156 -16 162 -16 355 5
184 20 235 29 387 68 522 135 943 451 1206 907 60 103 169 343 207 452 91 265
142 562 142 830 0 437 -139 944 -359 1315 -86 144 -244 343 -357 451 -193 183
-491 371 -744 468 -47 18 -107 42 -135 52 -78 31 -296 85 -445 110 -118 20
-170 23 -410 23 -210 0 -303 -4 -395 -17 -120 -18 -300 -52 -327 -62 -11 -4
-28 16 -58 67 -103 175 -239 330 -365 415 -245 165 -563 236 -905 202z m2280
-639 c643 -56 1231 -345 1616 -795 348 -407 534 -912 561 -1524 6 -148 -4
-297 -33 -476 -12 -78 -23 -125 -59 -265 -16 -61 -69 -219 -85 -255 -10 -22
-33 -75 -50 -117 -39 -95 -153 -288 -222 -377 -216 -275 -461 -448 -808 -571
-200 -72 -501 -88 -743 -40 -253 49 -425 138 -583 302 -158 163 -266 379 -325
652 -26 124 -26 125 24 144 23 9 83 37 132 62 216 109 371 248 479 430 229
386 216 941 -30 1261 -75 97 -178 185 -276 234 -87 43 -128 55 -128 36 0 -5
25 -19 56 -32 123 -49 255 -156 340 -274 120 -167 194 -495 165 -734 -49 -398
-263 -716 -598 -884 -102 -52 -176 -78 -186 -68 -5 5 -11 24 -13 43 -2 18 -6
51 -9 73 -2 22 -7 553 -10 1180 -5 1129 -7 1200 -26 1365 -11 85 -52 280 -68
322 -5 13 -15 43 -22 68 -7 25 -21 63 -31 85 -27 62 -24 82 15 88 17 3 79 14
135 26 224 46 536 62 782 41z m-1660 -1327 c-1 -1411 2 -1556 39 -1798 16
-110 28 -201 26 -203 -12 -12 -229 70 -344 131 -270 141 -472 406 -552 724
-63 251 -76 598 -29 832 79 400 311 791 640 1082 88 77 188 149 207 149 11 0
13 -158 13 -917z"/>
<path d="M24510 4895 c-7 -8 -16 -12 -21 -9 -5 3 -9 -3 -9 -13 0 -10 -8 -23
-19 -30 -31 -19 -33 -52 -5 -65 14 -6 23 -16 21 -22 -4 -12 -67 -15 -67 -3 0
20 -29 0 -105 -76 -73 -74 -82 -87 -78 -113 3 -22 2 -25 -6 -14 -5 8 -13 11
-17 8 -10 -11 4 -40 16 -33 5 3 10 1 10 -4 0 -6 9 -11 19 -11 10 0 22 -7 25
-16 9 -24 26 -6 26 27 0 16 5 29 10 29 6 0 10 9 10 20 0 11 6 20 14 20 17 0
31 -33 17 -38 -23 -8 -10 -22 19 -22 29 0 38 9 23 24 -5 4 -8 12 -8 17 0 5
-13 20 -30 34 -26 22 -28 26 -13 35 10 6 14 18 11 30 -6 24 9 26 28 4 11 -14
10 -18 -6 -30 -10 -8 -15 -17 -12 -21 4 -3 7 -4 7 -1 0 3 17 0 37 -7 53 -18
75 -6 62 37 -13 46 -12 48 19 48 35 0 45 9 31 27 -9 10 -8 13 1 13 9 0 9 4 2
13 -10 12 -10 41 0 67 11 27 17 90 9 90 -5 0 -14 -7 -21 -15z"/>
<path d="M24124 4490 c-22 -23 -42 -50 -46 -61 -4 -11 -18 -23 -30 -28 -13 -5
-38 -25 -57 -45 -32 -35 -32 -37 -17 -61 20 -30 50 -34 41 -6 -3 11 -1 22 4
25 11 7 61 -14 61 -26 0 -17 2 -23 12 -35 18 -22 48 -16 45 8 -1 12 4 24 11
26 7 3 12 -5 12 -21 0 -14 5 -26 11 -26 8 0 8 -4 0 -14 -16 -19 -3 -48 19 -41
12 4 25 -3 39 -21 20 -25 21 -26 21 -5 0 12 -7 33 -16 47 -13 19 -14 28 -5 37
11 11 16 67 5 67 -3 0 -12 -7 -20 -15 -25 -25 -41 -18 -40 17 1 24 11 43 39
69 33 33 36 40 27 64 -12 31 -32 29 -41 -6 l-7 -24 -2 25 c-6 63 -8 72 -17 81
-7 7 -23 -3 -49 -31z"/>
<path d="M23794 4165 c-70 -69 -130 -125 -134 -125 -14 0 -106 -96 -103 -107
3 -7 -3 -13 -14 -13 -10 0 -44 -25 -76 -55 -32 -30 -62 -55 -67 -55 -5 0 -13
-6 -17 -13 -4 -7 -33 -32 -62 -57 -30 -25 -65 -54 -77 -65 -11 -11 -44 -38
-73 -60 -28 -22 -66 -53 -84 -68 -18 -16 -48 -39 -67 -52 -19 -12 -51 -37 -70
-55 -19 -18 -47 -40 -62 -49 -14 -9 -44 -31 -65 -49 -35 -29 -116 -93 -194
-152 -18 -14 -38 -31 -45 -37 -7 -7 -17 -13 -23 -13 -6 0 -11 -4 -11 -10 0 -5
-4 -10 -10 -10 -10 0 -90 -56 -125 -87 -20 -18 -46 -36 -75 -50 -8 -4 -46 -29
-85 -56 -65 -45 -297 -200 -410 -273 -27 -18 -72 -45 -100 -60 -27 -15 -86
-50 -130 -79 -44 -29 -100 -63 -125 -76 -25 -13 -47 -27 -50 -30 -3 -3 -39
-23 -80 -45 -41 -21 -77 -42 -80 -45 -14 -16 -637 -339 -654 -339 -5 0 -17 -6
-25 -13 -9 -7 -83 -44 -166 -81 -171 -77 -205 -93 -295 -134 -36 -16 -94 -40
-130 -52 -36 -13 -72 -29 -81 -37 -8 -7 -21 -13 -28 -13 -7 0 -27 -6 -44 -14
-66 -29 -255 -104 -327 -130 -41 -15 -86 -32 -100 -38 -14 -5 -65 -23 -115
-39 -49 -16 -98 -34 -107 -39 -10 -6 -25 -10 -33 -10 -8 0 -57 -15 -108 -34
-50 -18 -119 -41 -152 -51 -33 -10 -84 -26 -113 -36 -29 -11 -65 -19 -81 -19
-15 0 -31 -3 -34 -7 -12 -12 -110 -43 -232 -74 -66 -17 -140 -37 -165 -44 -40
-13 -71 -21 -210 -55 -19 -5 -48 -11 -63 -14 -16 -3 -43 -9 -60 -15 -30 -9
-197 -46 -337 -75 -36 -8 -99 -19 -140 -26 -41 -6 -89 -15 -106 -21 -17 -5
-43 -9 -59 -9 -15 0 -44 -4 -64 -9 -20 -5 -70 -15 -111 -21 -41 -6 -102 -15
-135 -20 -200 -31 -282 -42 -480 -65 -458 -52 -889 -76 -1395 -78 -285 -1
-725 9 -785 18 -22 3 -110 10 -195 16 -384 24 -648 52 -905 95 -49 8 -175 28
-280 45 -264 42 -439 75 -580 109 -66 16 -133 31 -150 35 -16 3 -49 10 -72 16
-24 5 -62 13 -85 18 -83 17 -264 63 -358 91 -52 15 -106 31 -120 34 -86 22
-135 38 -144 45 -6 5 -29 12 -51 15 -44 8 -91 22 -145 42 -19 7 -60 20 -90 28
-30 7 -93 28 -140 46 -47 17 -96 34 -110 37 -23 4 -36 9 -92 32 -13 6 -45 17
-72 26 -27 9 -70 24 -95 35 -25 10 -91 35 -146 55 -55 20 -129 49 -165 65 -36
16 -110 45 -165 66 -55 21 -104 41 -110 45 -5 4 -44 21 -85 37 -41 17 -141 62
-223 101 -81 39 -149 71 -151 71 -2 0 -47 20 -99 45 -53 25 -100 45 -106 45
-5 0 -11 4 -13 9 -1 4 -41 27 -88 49 -108 52 -389 201 -490 259 -19 11 -81 48
-138 82 -57 33 -105 61 -107 61 -16 0 -487 298 -493 312 -2 5 -12 8 -22 8 -10
0 -20 4 -22 8 -1 4 -61 48 -133 97 -71 48 -136 93 -144 99 -8 6 -24 11 -35 11
-12 0 -21 6 -22 13 -1 6 -2 17 -3 22 0 6 -7 10 -14 10 -7 0 -20 9 -30 20 -9
11 -25 20 -36 20 -10 0 -21 7 -25 15 -3 8 -21 23 -41 32 -19 9 -35 21 -35 27
-1 19 -29 -38 -30 -59 0 -11 -9 -37 -19 -59 -20 -41 -17 -76 5 -76 8 0 14 -4
14 -10 0 -5 -4 -10 -10 -10 -5 0 -10 -4 -10 -10 0 -15 50 -12 51 3 1 6 0 29
-1 50 -1 36 0 37 24 31 17 -4 26 -2 26 6 0 10 3 10 15 0 8 -7 25 -10 40 -6 30
8 33 -4 5 -21 -14 -9 -19 -23 -18 -49 1 -39 20 -53 43 -34 12 10 12 15 -1 35
-13 20 -13 23 1 29 25 9 25 9 25 -25 0 -27 3 -30 23 -24 12 4 27 13 33 21 10
13 13 12 18 -2 10 -27 7 -32 -27 -43 -36 -12 -105 -66 -97 -75 10 -10 79 20
99 43 24 28 58 21 67 -15 3 -13 11 -24 17 -24 6 0 8 -26 4 -75 -5 -69 -4 -74
12 -65 11 5 18 21 19 39 0 17 5 38 10 47 16 29 42 -10 42 -65 0 -44 -3 -50
-31 -63 -39 -19 -16 -31 33 -17 18 5 34 9 35 9 2 0 3 -9 3 -20 0 -33 18 -23
22 13 l3 32 62 -2 c38 0 68 -7 76 -15 20 -20 32 -88 15 -88 -7 0 -5 -5 6 -12
15 -8 25 -7 46 6 16 9 30 16 32 16 2 0 3 -31 2 -70 -2 -43 2 -72 9 -77 6 -3
13 -1 15 5 2 6 11 8 20 5 12 -3 13 -2 5 4 -10 7 -10 17 -1 46 13 42 24 47 34
15 l7 -22 17 22 c27 32 37 27 43 -20 5 -45 6 -44 -63 -98 -14 -11 -35 -20 -47
-20 -13 0 -23 -4 -23 -9 0 -11 80 -2 97 11 6 5 23 6 37 2 15 -4 32 -1 41 6 8
7 23 9 32 5 16 -6 16 -8 -4 -16 -15 -5 -22 -16 -22 -31 1 -13 -2 -31 -6 -42
-7 -16 -6 -17 13 -7 36 19 55 14 50 -14 -4 -17 -1 -25 8 -25 8 0 14 -4 14 -10
0 -5 -7 -10 -15 -10 -8 0 -15 -4 -15 -10 0 -5 7 -10 15 -10 8 0 15 4 15 8 0
13 54 40 69 34 8 -2 11 0 8 5 -3 5 -2 15 3 23 8 13 12 13 26 -2 14 -14 15 -20
5 -32 -14 -17 -7 -36 15 -36 18 0 18 -26 0 -37 -18 -11 -38 -51 -31 -63 10
-16 35 1 36 24 0 20 1 20 10 -3 9 -23 10 -23 29 -6 11 10 20 24 20 30 0 13 31
25 67 25 20 0 21 -3 13 -26 -12 -31 -12 -35 -1 -53 12 -18 53 4 49 26 -5 25
16 26 27 1 6 -13 17 -22 27 -20 9 1 19 -2 23 -8 3 -5 1 -10 -6 -10 -10 0 -10
-3 -1 -12 7 -7 12 -20 12 -31 0 -14 -5 -17 -19 -12 -14 4 -23 0 -31 -15 -6
-12 -9 -24 -7 -27 6 -5 43 15 71 39 28 25 46 22 46 -6 0 -35 26 -40 48 -8 17
22 22 24 35 13 19 -15 11 -41 -13 -41 -20 0 -30 -19 -30 -56 0 -35 14 -30 29
11 12 34 19 38 76 47 12 2 19 10 17 20 -1 9 2 19 8 23 6 4 10 -8 10 -29 0 -20
-4 -36 -8 -36 -11 0 -42 -71 -36 -82 3 -4 14 -8 25 -8 20 0 27 -34 9 -45 -14
-9 -12 -27 2 -23 7 3 15 15 18 28 4 17 15 26 37 31 32 6 54 -9 78 -55 13 -25
35 -32 35 -12 0 9 7 16 15 16 9 0 15 -9 15 -25 0 -29 11 -31 44 -10 21 14 24
14 36 0 16 -19 34 -19 50 0 19 23 69 3 70 -28 0 -4 -10 -12 -22 -17 l-23 -9
23 0 c12 -1 22 -4 22 -8 0 -8 47 -33 62 -33 4 0 8 6 8 13 0 7 6 22 14 33 18
24 33 11 37 -31 3 -31 44 -85 64 -85 7 0 10 -10 8 -22 -3 -16 3 -27 17 -36 26
-16 46 -6 29 14 -9 11 -8 14 5 14 10 0 15 4 11 9 -3 5 -1 12 5 16 5 3 10 15
10 26 0 10 7 19 15 19 7 0 18 8 24 17 15 28 26 6 11 -23 -13 -24 -12 -27 10
-45 30 -22 59 -24 66 -4 4 8 10 12 15 9 6 -3 7 5 3 20 -5 22 -3 26 16 26 18 0
21 -4 16 -24 -10 -41 23 -104 46 -90 4 3 8 16 8 30 0 42 16 26 30 -31 8 -33
19 -55 27 -55 7 0 13 -5 13 -11 0 -5 5 -7 10 -4 6 3 10 31 10 61 0 30 4 54 10
54 6 0 10 -15 9 -32 -3 -39 8 -78 22 -78 12 0 12 -37 0 -44 -5 -3 -12 -22 -15
-41 -4 -20 -14 -39 -22 -42 -23 -9 -16 -21 10 -16 13 3 27 0 31 -6 4 -8 15 -6
36 6 29 17 35 28 22 36 -5 2 -2 2 6 0 8 -2 22 4 31 12 15 14 16 22 8 53 -6 20
-15 40 -21 44 -6 4 -8 10 -4 15 5 4 11 2 15 -4 4 -6 20 -15 35 -18 24 -7 28
-11 22 -33 -5 -21 -3 -24 15 -19 45 12 53 -4 18 -35 -18 -16 -27 -27 -20 -23
7 4 12 0 12 -9 0 -9 -4 -16 -10 -16 -5 0 -10 -11 -10 -25 0 -14 5 -25 10 -25
6 0 10 7 10 16 0 8 5 12 10 9 6 -4 23 5 37 19 14 14 30 26 35 26 4 0 6 11 2
25 -6 23 -3 25 25 25 36 0 38 -6 11 -28 -19 -16 -19 -19 -5 -46 8 -15 15 -38
16 -50 0 -21 0 -21 11 1 14 29 42 30 61 3 8 -12 18 -20 23 -19 22 4 33 -2 39
-21 4 -13 15 -20 32 -20 18 0 24 -4 19 -15 -8 -23 8 -18 34 10 18 19 20 28 12
38 -7 8 -9 17 -5 20 3 4 -1 7 -10 7 -10 0 -14 -6 -11 -14 3 -8 1 -17 -4 -20
-16 -9 -24 26 -10 40 16 15 78 26 78 14 0 -4 -8 -11 -17 -13 -17 -4 -17 -5 0
-6 19 -1 23 -16 7 -26 -18 -11 -11 -25 13 -25 12 0 30 9 40 20 9 11 24 20 33
20 13 0 14 -3 5 -14 -10 -11 -7 -17 11 -30 18 -13 19 -16 5 -16 -21 0 -21 1
-1 -38 15 -32 29 -37 71 -26 16 4 24 16 29 40 5 29 8 32 25 21 24 -15 38 -56
32 -90 -5 -25 -3 -27 25 -21 17 4 32 1 36 -5 11 -17 35 -13 58 9 16 15 25 17
35 9 9 -9 17 -8 28 1 21 18 42 -2 40 -37 -2 -19 -1 -20 2 -6 4 24 18 27 63 14
l25 -7 -25 -8 c-15 -4 -20 -9 -12 -13 8 -3 5 -10 -10 -23 l-23 -18 28 -11 c35
-14 35 -14 40 1 2 7 2 1 0 -15 -5 -30 3 -33 30 -13 21 16 14 63 -11 82 -17 12
-8 34 13 34 15 0 28 -31 42 -100 5 -28 3 -30 -23 -30 -27 0 -27 -1 -8 -15 10
-8 40 -15 67 -15 44 0 47 -2 42 -23 -9 -36 6 -49 43 -36 24 8 32 17 32 36 0
13 -4 21 -10 18 -5 -3 -10 -15 -10 -26 0 -42 -24 -11 -26 34 -3 50 -3 51 40
61 28 7 29 6 23 -26 -3 -18 -3 -27 0 -20 2 6 11 12 19 12 7 0 16 11 20 25 7
28 25 34 22 8 -1 -10 0 -28 0 -40 2 -20 4 -21 29 -8 18 10 31 11 37 5 6 -6 20
-10 32 -10 12 0 27 -7 34 -15 10 -13 10 -19 -5 -35 -15 -16 -15 -22 -5 -35 18
-22 32 -19 25 5 -4 12 -1 27 5 35 7 8 9 15 6 15 -4 0 -2 9 4 20 12 22 33 18
24 -3 -3 -8 10 -20 31 -30 26 -13 35 -23 35 -42 0 -14 5 -25 10 -25 6 0 10 -7
10 -15 0 -8 -4 -15 -10 -15 -5 0 -10 -7 -10 -15 0 -19 19 -19 26 0 4 8 12 15
20 15 8 0 14 9 14 21 0 11 7 27 15 35 8 8 12 21 9 28 -7 17 28 30 56 21 11 -3
20 -14 20 -24 0 -9 4 -21 9 -26 5 -6 11 -25 13 -44 2 -19 8 -36 15 -38 13 -5
43 51 43 78 0 15 6 18 32 15 42 -5 59 -30 52 -75 l-6 -36 59 -2 c56 -1 60 0
82 33 32 46 71 47 102 2 16 -22 18 -30 8 -26 -8 3 -26 -2 -40 -13 -23 -17 -23
-19 -6 -36 18 -17 19 -17 38 9 22 30 65 38 86 17 20 -20 -7 -37 -49 -31 -23 3
-38 0 -38 -6 0 -11 80 -22 178 -24 66 -2 96 12 74 34 -9 9 -12 9 -12 -1 0 -10
-3 -11 -14 -2 -11 9 -15 9 -18 0 -3 -8 -9 -9 -19 -3 -15 9 -20 11 -45 13 -14
1 -14 4 -4 16 10 12 15 13 20 4 10 -16 30 -2 23 16 -3 8 0 15 6 15 7 0 14 -7
18 -16 4 -11 13 -13 34 -9 21 5 31 2 35 -9 3 -9 13 -16 21 -16 13 0 13 -3 3
-15 -8 -10 -10 -19 -4 -25 8 -8 96 -12 203 -10 19 1 41 -2 50 -6 13 -5 11 -8
-9 -14 l-25 -8 23 -7 c12 -4 22 -11 22 -15 0 -4 41 -7 91 -6 69 1 97 -3 116
-15 16 -10 21 -19 14 -23 -18 -12 -12 -26 10 -26 31 0 59 18 53 35 -4 10 0 15
15 15 25 0 26 -7 6 -30 -14 -16 -12 -17 35 -12 41 4 50 2 50 -11 0 -22 20 -32
32 -16 7 11 11 11 15 2 7 -18 23 -16 23 2 0 15 38 21 103 17 15 -1 27 2 27 8
0 16 58 11 68 -6 5 -10 23 -15 51 -16 36 0 39 -2 24 -13 -15 -11 -11 -13 30
-16 26 -2 47 -1 47 3 0 5 4 8 9 8 5 0 8 -7 7 -16 0 -9 5 -19 12 -21 7 -3 12 5
13 19 0 21 1 22 8 3 5 -11 4 -30 0 -43 -5 -13 -9 -25 -9 -26 0 -8 80 -4 85 4
7 11 -31 24 -45 15 -5 -3 -10 3 -10 14 0 10 6 21 13 24 17 5 -11 56 -38 68
-15 7 -13 8 10 3 17 -3 32 -10 34 -16 2 -6 13 -20 25 -32 11 -11 22 -25 22
-31 1 -5 2 -17 3 -25 1 -10 4 -11 9 -4 4 6 14 14 22 17 12 4 11 6 -2 6 -10 1
-18 6 -18 11 0 6 8 13 18 16 9 3 27 10 39 16 24 12 43 4 43 -18 0 -8 5 -14 10
-14 6 0 10 7 10 15 0 18 2 18 34 4 14 -7 23 -16 19 -22 -3 -6 -8 -5 -12 1 -4
7 -12 6 -23 -2 -15 -11 -15 -14 3 -36 14 -19 19 -21 19 -8 0 15 3 15 40 1 26
-10 40 -22 40 -34 0 -10 9 -21 20 -24 11 -3 20 -14 20 -23 1 -16 1 -16 11 0 5
10 9 24 7 32 -2 8 6 22 18 33 11 10 23 26 27 36 6 15 10 16 28 7 17 -10 24 -8
39 10 18 20 21 21 35 6 12 -11 22 -13 41 -6 32 13 75 13 56 1 -8 -4 -13 -12
-13 -17 1 -5 -29 -10 -66 -10 -116 -3 -111 -2 -109 -29 1 -26 10 -32 21 -15 3
5 20 10 36 10 18 0 28 -4 24 -10 -3 -6 1 -10 9 -10 9 0 16 -5 16 -11 0 -6 6
-9 14 -6 7 3 26 -1 41 -9 32 -17 59 -18 86 -4 14 8 19 21 19 55 0 24 5 47 10
50 6 3 10 0 10 -7 0 -8 6 -23 14 -33 12 -16 18 -17 39 -8 20 9 27 9 31 0 2 -7
5 -1 5 12 1 18 4 21 14 13 8 -7 18 -7 27 -2 21 13 29 3 24 -26 -3 -18 -1 -25
8 -21 7 2 13 14 12 26 0 11 5 21 11 21 15 0 40 -28 32 -36 -3 -4 2 -14 11 -24
24 -24 167 -37 158 -14 -3 9 -6 18 -6 20 0 2 -10 4 -22 4 -21 1 -22 2 -5 14
10 8 15 20 11 30 -5 12 0 16 19 16 14 0 32 3 41 6 29 11 16 -11 -14 -24 -16
-8 -30 -20 -30 -28 0 -17 20 -19 20 -1 0 6 9 1 19 -13 l19 -24 21 24 c11 14
20 31 21 38 0 14 16 16 24 3 3 -5 -2 -12 -11 -15 -15 -6 -15 -8 -3 -16 21 -14
30 -12 30 5 0 8 9 15 20 15 11 0 20 -4 20 -8 0 -4 35 -4 78 0 78 8 153 2 162
-13 3 -4 37 -4 75 1 47 6 76 5 90 -3 11 -6 45 -12 75 -13 76 -3 120 -14 120
-30 0 -8 5 -14 10 -14 6 0 10 7 10 16 0 10 6 14 14 11 8 -3 20 0 26 8 6 7 25
12 42 11 16 -1 36 3 42 9 16 16 96 16 120 -1 10 -7 24 -10 30 -8 7 3 24 0 39
-5 18 -7 27 -7 29 1 6 16 86 -1 106 -22 9 -10 29 -18 45 -18 23 0 26 4 21 20
-5 16 -2 19 13 14 12 -4 27 1 39 12 16 16 22 17 32 5 9 -9 10 -18 2 -32 -14
-26 10 -33 116 -35 46 -1 86 -5 90 -9 11 -11 24 -8 24 6 0 18 -58 41 -73 29
-8 -7 -18 -7 -27 -2 -8 5 -25 7 -36 4 -27 -7 -37 7 -28 41 7 27 24 35 24 10 0
-8 5 -15 10 -15 6 0 10 5 10 11 0 7 11 21 23 33 13 12 29 31 35 42 9 15 13 17
23 7 11 -11 10 -13 -5 -13 -9 0 -15 -4 -11 -9 3 -6 18 -5 37 1 18 6 27 13 20
16 -19 6 -14 22 8 22 11 0 20 -6 20 -14 0 -9 13 -14 41 -14 47 -1 58 -7 41
-24 -9 -9 -15 -9 -24 0 -7 7 -24 12 -39 12 -24 0 -26 -3 -25 -37 1 -21 4 -37
9 -35 4 1 27 2 51 2 35 0 46 4 50 18 4 10 12 19 19 20 48 3 122 22 125 31 2 6
10 11 18 11 9 0 12 5 8 13 -6 9 -4 9 7 -1 18 -17 75 -15 104 4 16 10 31 13 42
8 10 -4 33 -8 52 -9 18 -1 36 -6 40 -11 3 -5 28 -9 55 -10 33 -1 53 -6 61 -17
7 -10 18 -17 24 -17 16 0 10 32 -8 46 -12 10 -11 13 9 19 17 5 27 3 37 -11 7
-9 16 -15 19 -11 4 4 2 12 -3 19 -16 19 2 58 27 58 11 0 20 5 20 11 0 6 7 8
16 5 9 -3 24 4 38 17 12 12 34 28 49 34 15 7 27 19 27 26 0 8 8 21 18 30 16
15 17 14 13 -26 -2 -23 -10 -47 -18 -52 -13 -10 -11 -14 12 -29 27 -18 27 -18
56 14 31 34 35 50 18 67 -7 7 -7 13 0 17 5 4 17 -7 26 -23 19 -37 19 -41 0
-41 -17 0 -20 -25 -5 -35 6 -3 17 1 26 9 8 9 22 16 30 16 8 0 14 6 14 14 0 16
37 46 57 46 7 0 10 -6 7 -14 -6 -15 22 -30 38 -20 7 4 4 10 -6 16 -25 14 -19
28 13 28 17 0 32 4 36 10 3 5 12 7 20 4 10 -4 18 3 25 20 6 16 15 24 23 20 11
-4 12 -14 4 -50 -9 -37 -8 -47 4 -54 9 -7 15 -5 17 5 2 8 13 16 25 17 12 0 34
2 49 3 15 1 25 -2 23 -6 -3 -4 0 -11 6 -14 6 -4 13 2 16 14 3 12 12 21 19 21
8 0 14 9 14 20 0 23 -1 23 115 29 l40 2 -34 15 c-33 14 -33 15 -15 29 10 8 27
15 38 15 15 0 16 -3 7 -14 -10 -12 -9 -17 6 -24 10 -5 24 -7 31 -5 6 3 12 0
12 -6 0 -6 12 -11 26 -11 14 0 22 4 19 10 -3 6 1 7 10 4 8 -4 22 -1 30 6 8 6
23 9 33 6 11 -4 27 -4 36 0 17 7 22 39 6 49 -15 10 -90 -15 -97 -31 -5 -13 -7
-13 -14 -2 -15 23 -10 27 39 34 26 4 39 10 30 12 -22 4 -24 28 -3 36 8 3 15 1
15 -4 0 -6 9 -10 20 -10 27 0 25 18 -2 30 -18 7 -19 9 -5 9 20 1 57 -18 73
-38 16 -20 64 -6 64 18 0 12 9 21 25 25 14 4 25 11 25 16 0 21 16 9 18 -14 2
-24 14 -56 35 -91 17 -28 59 -22 57 8 -3 36 1 73 7 60 11 -28 31 -11 37 31 7
43 19 56 54 56 13 0 13 -2 -3 -13 -20 -15 -13 -37 11 -37 11 0 13 -6 9 -19 -6
-20 8 -23 33 -8 17 11 15 25 -5 29 -15 3 -14 5 5 10 18 5 22 2 22 -17 0 -19 7
-24 42 -29 61 -10 73 10 15 26 -28 7 -43 16 -39 22 4 6 7 13 8 16 15 50 16 51
29 33 9 -12 10 -22 4 -30 -7 -8 -4 -15 12 -23 26 -14 39 0 39 43 0 17 5 27 15
27 9 0 15 -9 15 -25 0 -18 4 -23 15 -19 8 4 15 15 15 25 0 13 7 19 24 19 16 0
27 7 31 19 4 12 12 18 21 14 15 -6 20 -33 5 -33 -5 0 -12 -7 -15 -16 -4 -11
-1 -14 12 -13 9 2 28 -1 41 -5 16 -6 26 -4 32 5 8 11 11 11 20 -3 5 -10 21
-18 34 -18 23 0 23 1 9 29 -15 31 -9 65 11 58 6 -3 17 4 24 14 6 11 16 17 21
14 6 -4 8 -10 5 -15 -13 -21 15 -17 41 5 16 14 39 25 52 25 19 0 22 4 16 27
-4 16 -3 24 2 20 5 -5 9 -13 9 -19 0 -6 10 -17 23 -26 13 -8 22 -11 20 -6 -3
10 5 14 25 14 9 0 9 -2 -1 -9 -17 -11 -5 -62 13 -55 7 3 11 14 8 25 -4 13 0
19 11 19 24 0 20 19 -6 30 -19 7 -16 9 20 9 31 1 42 -3 42 -14 0 -23 27 -18
33 6 3 11 15 23 26 26 14 3 21 13 21 29 0 13 5 24 12 24 8 0 6 6 -4 17 -24 23
-72 3 -63 -27 8 -24 -13 -27 -30 -4 -14 19 -55 11 -55 -12 0 -16 -26 -19 -35
-4 -3 6 -17 7 -31 4 -17 -4 -26 -1 -30 10 -3 9 -12 16 -20 16 -8 0 -14 5 -14
10 0 14 27 23 46 16 13 -5 14 -9 4 -21 -7 -8 -11 -15 -9 -16 30 -6 70 -1 74 9
2 6 14 12 25 12 11 0 31 6 43 14 12 8 38 16 57 19 44 5 69 16 95 40 25 24 83
49 95 42 6 -4 10 -1 10 4 0 19 28 12 33 -9 7 -27 47 -27 47 0 0 22 20 26 51
10 13 -8 19 -7 19 0 0 6 6 8 13 4 8 -6 8 -3 -1 9 -15 17 -7 41 9 31 5 -3 16
-1 23 5 7 6 21 9 30 5 12 -4 16 0 16 15 0 13 10 26 25 33 14 6 25 15 25 21 0
5 6 7 14 4 8 -3 16 2 19 14 3 12 11 17 21 13 10 -4 18 0 22 10 3 9 10 16 16
16 5 0 6 -5 3 -10 -3 -6 -1 -10 4 -10 6 0 11 -5 11 -11 0 -5 -5 -7 -11 -3 -16
10 0 -57 19 -78 25 -29 30 -21 26 40 -7 115 -7 132 -1 139 7 6 11 -11 8 -35
-1 -8 6 -12 16 -10 12 2 18 -3 17 -15 -1 -9 2 -17 6 -17 5 0 17 -3 27 -7 17
-6 17 -6 1 10 -13 14 -14 22 -5 46 6 16 15 27 20 24 5 -3 13 1 18 8 7 11 9 11
9 -2 0 -25 41 -32 47 -8 9 33 25 8 19 -30 l-7 -36 21 25 c19 23 21 24 34 8 7
-10 23 -18 35 -18 17 0 21 4 16 19 -3 10 0 25 8 33 7 7 12 18 10 24 -2 7 8 15
22 18 14 4 23 11 20 16 -3 6 -3 15 1 21 5 8 9 8 14 -1 12 -19 80 6 80 29 0 10
16 35 35 57 20 22 35 50 35 63 0 24 1 24 14 5 9 -12 11 -23 5 -28 -12 -13 -12
-29 1 -21 6 4 17 1 25 -5 8 -7 23 -9 32 -6 15 6 15 8 3 16 -13 8 -13 10 -1 10
8 0 22 7 31 15 15 14 19 14 31 -1 11 -14 10 -19 -9 -34 -12 -10 -22 -23 -22
-29 0 -14 37 -15 45 -1 3 6 1 10 -4 10 -6 0 -11 4 -11 10 0 15 29 0 32 -18 2
-12 8 -9 21 12 14 20 16 31 8 39 -15 15 -14 27 4 27 8 0 15 -4 15 -10 0 -5 4
-10 9 -10 6 0 13 20 17 45 6 44 7 45 25 29 11 -9 19 -29 19 -43 0 -22 7 -28
43 -39 23 -7 49 -23 58 -34 23 -30 40 -16 26 23 -11 28 -14 30 -49 24 -38 -7
-48 1 -26 23 8 8 8 15 -2 27 -19 23 -6 28 34 11 31 -13 36 -13 36 -1 0 19 -34
36 -71 37 -30 1 -39 12 -16 21 8 4 9 8 1 14 -21 17 -42 56 -37 69 8 21 33 17
33 -5 0 -32 11 -51 30 -51 10 0 22 -9 25 -20 3 -11 14 -20 23 -20 13 0 14 2 3
9 -10 7 -11 13 -2 30 7 12 16 19 22 15 6 -3 6 -10 1 -17 -6 -7 -9 -23 -8 -37
1 -21 6 -25 31 -25 29 0 30 1 28 45 -1 25 0 62 3 82 5 33 8 37 24 28 10 -6 30
-10 44 -10 27 0 37 -25 14 -33 -7 -2 -10 -8 -6 -12 4 -4 17 2 29 14 25 23 65
28 72 9 3 -7 5 6 5 28 l-1 41 -33 -19 c-36 -21 -49 -19 -57 12 -6 24 10 37 26
21 19 -19 37 -12 37 15 0 18 4 24 13 21 21 -8 42 10 42 35 0 16 7 24 23 26 18
3 22 -1 22 -21 0 -18 7 -27 26 -31 22 -6 33 0 70 41 25 26 50 65 56 86 10 33
15 37 44 37 40 0 66 -9 58 -21 -3 -5 -19 -9 -37 -9 -43 0 -23 -16 31 -24 32
-5 42 -3 42 8 0 7 9 16 21 19 13 4 18 10 14 17 -4 7 -1 16 6 21 8 5 9 9 3 9
-7 0 -9 11 -6 25 5 30 37 34 45 5 6 -23 27 -27 27 -5 0 7 8 18 18 24 9 5 17
22 18 38 2 106 3 113 25 113 19 0 20 -4 14 -39 -6 -34 -3 -41 15 -51 20 -11
21 -10 15 9 -5 16 -2 21 12 21 11 0 24 -5 30 -11 24 -24 32 -3 10 23 -19 22
-26 25 -37 15 -10 -10 -12 -7 -7 12 3 14 2 30 -4 37 -7 8 -6 12 3 11 43 -1 68
4 66 16 -2 7 9 13 25 15 34 4 62 -25 45 -46 -6 -7 -9 -13 -7 -15 46 -26 49
-27 49 -13 0 8 -4 18 -10 21 -20 12 -10 35 15 35 17 0 25 -6 25 -17 0 -12 8
-18 25 -19 18 -2 25 3 25 17 0 21 -16 26 -23 7 -2 -7 -8 -9 -13 -5 -5 4 -3 11
4 15 6 5 13 19 14 32 3 25 1 26 -43 13 -20 -6 -46 45 -26 52 16 6 37 2 64 -13
12 -7 30 -12 39 -12 17 0 17 1 0 13 -15 11 -16 18 -8 33 6 10 14 35 17 56 6
40 23 51 62 42 22 -6 25 -4 21 13 -3 11 0 20 6 21 6 1 24 4 40 8 24 6 28 4 23
-9 -6 -16 21 -47 43 -47 9 0 10 3 2 13 -6 7 -14 42 -18 78 -6 63 -6 65 20 77
20 9 26 9 26 0 0 -7 14 -27 32 -45 22 -22 32 -44 33 -65 0 -21 8 -36 24 -47
l24 -15 -17 31 c-9 18 -16 37 -16 43 0 19 30 10 46 -15 15 -23 43 -33 57 -19
3 4 -3 19 -15 34 -17 24 -19 33 -10 61 6 19 10 45 9 59 -1 16 3 24 11 22 8 -1
11 5 6 22 -5 20 -1 24 23 29 15 3 36 1 46 -5 10 -5 30 -8 44 -6 32 4 44 28 14
28 -42 0 -67 20 -68 54 -1 30 1 32 24 28 18 -3 23 -10 20 -23 -8 -29 19 -45
48 -29 20 10 22 16 12 31 -15 24 -1 36 23 21 25 -15 33 -15 24 0 -5 7 -1 10
12 6 17 -4 19 1 20 43 1 46 0 48 -33 54 -18 3 -33 10 -33 14 0 14 32 23 43 12
5 -5 17 -6 28 -4 15 4 19 14 19 52 0 26 -5 52 -12 59 -9 9 -9 15 0 24 9 9 15
9 24 0 17 -17 28 -15 28 6 1 16 1 16 11 0 5 -10 16 -18 23 -18 12 0 25 -17 31
-40 11 -43 32 -80 46 -80 26 0 32 41 8 58 -22 15 -17 32 10 32 27 0 28 70 1
77 -22 6 -26 19 -8 25 17 6 38 -16 38 -38 0 -17 1 -17 13 0 12 16 14 16 26 2
15 -18 47 -21 56 -6 3 6 0 10 -8 10 -20 0 -47 33 -47 59 0 14 9 25 25 31 23 9
36 40 16 40 -8 0 -9 39 -2 73 2 11 49 9 56 -3 3 -5 15 -10 26 -10 11 0 19 -7
19 -16 0 -11 6 -15 20 -11 10 3 27 -1 37 -8 15 -12 21 -11 38 4 31 28 55 33
55 13 1 -16 1 -15 11 1 14 24 -5 47 -38 47 -14 0 -26 7 -29 18 -3 9 -10 25
-15 34 -5 10 -9 20 -9 23 0 12 60 4 74 -10 26 -27 35 -17 30 35 -2 29 0 50 6
50 6 0 10 -9 10 -20 0 -11 4 -20 10 -20 16 0 23 46 10 69 -7 14 -8 27 -1 40 6
10 7 21 4 25 -3 3 -1 6 5 6 6 0 16 -15 22 -34 12 -36 36 -63 47 -52 4 3 -2 12
-12 20 -27 19 -11 38 21 24 35 -16 46 0 46 64 0 29 5 59 10 66 7 8 7 16 -1 25
-17 22 -2 27 38 12 54 -19 65 -8 38 39 -12 22 -26 37 -32 35 -5 -2 -9 -6 -8
-9 1 -3 5 -13 8 -22 4 -10 3 -18 -3 -18 -12 0 -42 61 -36 72 3 4 25 8 50 8 37
0 46 -4 54 -22 7 -18 9 -19 9 -5 1 28 40 21 47 -8 6 -25 28 -33 39 -15 3 5 0
22 -8 37 -17 36 -8 89 16 87 19 -2 12 14 -15 34 -20 15 -24 47 -6 58 6 4 21
-4 34 -19 13 -15 27 -27 33 -27 27 0 20 -26 -14 -55 -39 -32 -41 -55 -5 -55
10 0 26 -10 35 -22 15 -21 16 -21 12 -3 -11 40 -11 83 -1 96 6 8 8 38 6 67 -3
44 -7 52 -24 52 -11 0 -22 8 -25 20 -3 11 -13 20 -23 20 -10 0 -75 -56 -146
-125z"/>
<path d="M6548 3918 c-2 -18 -11 -24 -34 -26 -39 -4 -86 -49 -64 -62 9 -6 23
-2 40 10 33 24 76 35 84 21 4 -5 -1 -25 -10 -44 -9 -20 -14 -42 -11 -51 9 -23
37 -20 37 3 0 24 13 33 34 25 23 -9 20 -50 -6 -68 -17 -12 -25 -13 -36 -4 -10
9 -16 8 -23 -3 -11 -18 -11 -26 1 -34 6 -3 10 -1 10 6 0 7 10 9 26 6 15 -2 39
2 55 12 28 16 29 18 24 81 -4 63 -6 66 -52 107 -55 48 -70 52 -75 21z"/>
<path d="M6720 3790 c0 -5 5 -10 10 -10 16 0 12 -57 -5 -74 -8 -8 -15 -19 -15
-24 0 -13 71 3 80 18 6 9 9 9 14 1 8 -13 -3 -56 -11 -47 -7 7 -33 -13 -33 -24
0 -15 35 -16 46 -1 9 12 15 12 42 0 35 -15 40 -30 17 -49 -10 -9 -12 -17 -5
-30 7 -13 3 -23 -15 -40 -25 -24 -33 -50 -15 -50 5 0 14 9 20 19 6 13 16 17
31 14 12 -4 25 0 30 8 7 11 11 10 23 -6 13 -18 15 -18 21 -3 4 9 13 14 21 11
9 -3 14 2 14 16 0 24 18 28 26 6 7 -17 30 -20 39 -5 7 11 -102 86 -111 77 -4
-3 -9 -19 -13 -35 l-6 -30 -17 22 c-15 21 -15 25 -1 55 16 32 16 32 -23 66
-21 19 -42 35 -45 35 -4 0 -28 20 -53 45 -47 44 -66 55 -66 35z"/>
<path d="M7334 3295 c13 -34 -12 -48 -105 -59 -11 -2 -111 -98 -106 -102 2 -3
23 5 45 17 40 22 42 22 62 4 14 -13 17 -21 9 -31 -6 -8 -6 -14 0 -18 15 -10
24 12 16 41 -6 27 20 63 42 56 6 -2 14 1 18 6 3 6 17 11 30 11 13 0 27 5 30
10 10 17 35 -9 35 -35 0 -14 -7 -25 -20 -28 -12 -3 -20 -14 -20 -25 0 -11 -3
-28 -6 -37 -5 -13 -2 -16 17 -13 16 2 25 11 27 25 2 15 13 25 30 29 62 15 68
44 15 78 -21 13 -54 37 -73 55 -38 33 -55 40 -46 16z"/>
<path d="M29427 3239 c-10 -6 -31 -7 -47 -4 -18 4 -30 2 -30 -4 0 -5 12 -11
28 -13 l27 -3 -37 -25 c-20 -14 -42 -35 -47 -47 -6 -13 -15 -23 -21 -23 -5 0
-27 -15 -47 -34 -21 -18 -51 -36 -66 -40 -29 -7 -28 -26 2 -26 17 0 40 19 73
59 10 11 27 21 38 21 11 0 23 7 26 15 3 8 14 17 25 20 10 4 19 12 19 19 0 12
61 66 74 66 3 0 6 -5 6 -11 0 -7 8 -18 18 -25 15 -12 13 -13 -18 -14 -33 -1
-34 -1 -15 -16 22 -16 70 -11 96 12 19 17 39 18 39 2 0 -9 3 -9 12 0 19 19
-10 34 -51 27 -30 -6 -33 -4 -28 14 8 34 -38 52 -76 30z"/>
<path d="M22180 2955 c-7 -8 -30 -18 -51 -21 -26 -5 -36 -10 -32 -20 3 -8 0
-14 -7 -14 -7 0 -25 -9 -40 -20 -16 -11 -32 -19 -37 -18 -18 5 -51 -14 -56
-32 -3 -11 -12 -20 -21 -20 -10 0 -16 -8 -16 -21 0 -12 -5 -19 -12 -16 -7 2
-12 10 -10 16 1 6 -2 11 -8 11 -5 0 -10 -4 -10 -9 0 -5 -17 -18 -37 -28 -27
-14 -39 -27 -41 -46 -2 -20 1 -27 13 -27 19 0 75 31 75 41 0 4 19 17 43 29 23
12 46 28 50 36 4 8 15 14 22 14 8 0 15 5 15 10 0 6 10 15 23 20 12 6 30 14 40
20 9 5 25 14 35 19 9 5 16 14 15 20 -2 6 4 11 12 11 8 0 15 -5 15 -12 0 -15
59 44 60 60 0 17 -25 15 -40 -3z"/>
<path d="M70 2711 c0 -14 6 -21 19 -21 10 0 35 -11 55 -25 41 -28 76 -33 76
-10 0 15 40 22 53 9 9 -9 -4 -34 -18 -34 -7 0 -18 -7 -25 -15 -16 -19 -45 -19
-75 1 -23 15 -25 15 -31 0 -5 -13 -14 -15 -34 -11 -16 3 -31 1 -35 -4 -3 -6
-15 -11 -26 -11 -23 0 -17 -15 13 -31 19 -10 20 -9 15 10 -6 24 12 28 44 9 17
-10 23 -10 26 0 6 16 34 15 60 -3 20 -14 23 -13 41 10 11 14 24 25 30 25 6 0
12 4 14 10 2 5 19 11 38 13 22 3 36 10 38 21 4 21 8 20 49 -5 54 -34 54 -13
-1 29 -21 16 -33 19 -46 12 -30 -16 -62 -11 -109 15 -45 26 -85 32 -96 15 -6
-10 -23 -8 -62 7 -8 3 -13 -3 -13 -16z"/>
<path d="M21537 2581 c-10 -4 -18 -10 -18 -14 2 -21 -1 -25 -18 -20 -13 3 -21
-2 -25 -15 -5 -14 -13 -19 -28 -17 -13 3 -27 -3 -35 -15 -8 -11 -29 -27 -48
-36 -19 -9 -35 -23 -35 -31 0 -9 -8 -13 -24 -11 -13 1 -31 -4 -41 -12 -10 -8
-23 -15 -29 -16 -32 -3 -36 -5 -36 -14 0 -5 5 -10 12 -10 6 0 20 -7 30 -17 10
-9 18 -12 18 -6 0 5 11 15 25 21 16 7 23 17 19 27 -7 17 13 20 36 5 8 -5 17
-6 20 -1 3 4 21 17 40 29 19 11 46 32 60 45 14 13 44 28 65 33 33 8 41 14 43
37 2 19 9 27 23 27 11 0 17 5 14 10 -7 11 -41 12 -68 1z"/>
<path d="M21120 2313 c0 -25 -1 -26 -19 -8 -19 17 -22 16 -63 -18 -24 -19 -60
-38 -81 -42 -20 -4 -47 -15 -60 -25 -12 -9 -32 -20 -44 -24 -13 -4 -23 -12
-23 -17 0 -5 -7 -9 -15 -9 -8 0 -23 -9 -32 -20 -10 -11 -27 -20 -39 -20 -12 0
-30 -3 -40 -7 -16 -6 -16 -7 2 -14 15 -6 12 -8 -13 -8 -17 -1 -35 -6 -38 -11
-4 -6 -10 -8 -15 -5 -5 3 -18 -6 -29 -21 -11 -14 -25 -23 -31 -19 -5 3 -10 2
-10 -4 0 -21 42 -22 85 -2 25 12 49 21 55 21 5 0 10 5 10 10 0 6 11 10 25 10
14 0 25 5 25 10 0 6 7 10 15 10 8 0 15 5 15 10 0 6 7 10 15 10 8 0 29 8 47 18
18 10 46 22 61 26 30 7 34 10 81 51 16 14 39 25 52 25 12 0 26 5 29 10 4 6 24
19 46 30 46 24 55 60 14 60 -20 0 -25 -5 -25 -27z"/>
<path d="M750 2258 c-80 -5 -193 -9 -251 -9 -123 0 -206 -16 -104 -20 33 -1
90 -1 127 1 84 3 106 -4 104 -33 -1 -18 -9 -23 -41 -28 -46 -7 -37 -12 15 -9
19 1 55 11 80 23 43 21 44 22 18 25 -16 2 -28 7 -28 12 0 15 34 20 139 22 65
1 109 7 119 15 20 14 37 14 -178 1z"/>
<path d="M306 2076 c3 -8 -4 -24 -15 -35 -25 -25 -30 -23 97 -26 46 -1 85 2
89 8 4 6 -19 8 -63 5 -52 -4 -73 -1 -83 9 -19 21 -6 28 32 17 17 -5 55 -7 84
-3 29 4 122 6 207 5 85 0 151 3 147 7 -15 15 -168 24 -258 16 -53 -5 -92 -4
-97 2 -6 5 -40 9 -78 9 -54 0 -66 -3 -62 -14z"/>
<path d="M1475 2073 c-56 -30 -65 -33 -88 -29 -12 3 -48 7 -79 10 -47 5 -56 4
-52 -8 4 -9 -3 -16 -18 -19 -16 -3 -13 -5 12 -6 19 -1 46 -4 59 -8 17 -4 22
-3 17 5 -5 9 10 12 51 13 32 0 78 3 103 6 64 9 115 8 199 -3 81 -12 132 -6
139 15 4 11 -3 12 -29 7 -94 -18 -129 -19 -129 -3 0 10 -13 17 -42 21 -24 3
-59 7 -78 10 -22 3 -46 -1 -65 -11z"/>
<path d="M20452 1995 c-11 -14 -25 -25 -31 -25 -6 0 -11 -7 -11 -16 0 -12 -6
-15 -26 -10 -18 5 -24 3 -18 -5 4 -7 3 -9 -4 -6 -16 11 -43 -4 -40 -22 2 -12
-5 -16 -32 -17 -61 -2 -130 -15 -130 -25 0 -5 -7 -9 -17 -9 -9 0 -31 -11 -49
-25 -31 -24 -78 -47 -99 -49 -18 -2 -75 -31 -75 -38 0 -5 -10 -8 -22 -8 -13 0
-31 -7 -41 -14 -10 -8 -27 -12 -37 -9 -11 3 -31 -2 -45 -11 -13 -9 -36 -16
-50 -16 -14 0 -25 -6 -25 -14 0 -7 -15 -17 -32 -22 -23 -7 -34 -17 -36 -33 -3
-20 -1 -21 18 -11 11 6 32 10 46 8 18 -2 29 5 44 27 11 17 20 24 20 17 0 -15
47 -6 71 14 8 8 34 14 58 14 25 0 44 5 47 13 2 7 38 24 79 38 51 16 78 31 86
46 8 14 22 23 36 23 13 0 23 6 23 13 0 8 3 8 9 -2 12 -19 45 -6 37 15 -4 12
-2 15 9 11 8 -4 17 -2 20 3 4 6 17 10 30 10 13 0 27 5 30 10 3 6 15 10 26 10
11 0 38 12 62 27 23 15 48 26 55 25 7 -2 12 8 12 23 0 14 5 25 10 25 6 0 10
-10 10 -22 0 -19 2 -20 13 -6 6 9 25 19 42 23 28 6 45 20 45 38 0 4 -8 3 -18
-2 -11 -6 -24 -6 -33 0 -24 15 -47 10 -67 -16z"/>
<path d="M593 1796 c4 -11 -7 -16 -46 -21 -64 -8 -157 -31 -165 -41 -7 -7 97
1 146 12 l27 6 -25 -21 c-14 -11 -34 -23 -45 -27 -11 -3 -32 -17 -46 -31 -29
-27 -31 -27 -149 -19 -57 4 -78 3 -65 -3 11 -5 41 -10 67 -10 53 -1 71 -16 32
-25 -21 -6 -24 -9 -14 -21 7 -8 26 -15 42 -15 24 0 28 3 19 13 -14 17 -4 27
26 27 13 0 23 5 23 10 0 6 5 10 11 10 8 0 8 -4 0 -14 -14 -16 -8 -21 37 -31
24 -5 33 -3 38 9 3 9 14 16 24 16 20 0 33 15 37 43 4 23 -1 22 -39 -11 -32
-28 -68 -47 -68 -36 0 3 12 16 26 29 22 21 24 25 9 25 -37 0 6 29 53 36 60 8
74 17 39 24 l-27 5 46 38 47 37 -33 0 c-24 0 -31 -4 -27 -14z"/>
<path d="M29365 1524 c-16 -8 -40 -25 -52 -36 -16 -15 -26 -18 -35 -11 -7 6
-22 7 -32 3 -15 -5 -16 -9 -7 -15 11 -6 11 -9 0 -16 -19 -12 -49 -11 -49 1 0
6 -10 20 -21 31 -17 17 -27 20 -47 13 -29 -10 -41 -34 -18 -34 9 0 16 -4 16
-9 0 -11 -25 -21 -53 -21 -12 0 -40 -12 -62 -26 -31 -19 -34 -24 -15 -20 14 4
45 9 70 12 25 4 52 12 60 19 8 7 26 16 40 19 18 6 21 5 10 -3 -33 -23 2 -19
91 10 122 41 149 55 149 79 0 24 -6 25 -45 4z"/>
<path d="M264 1451 c4 -6 18 -11 30 -11 21 0 82 -18 126 -37 25 -10 -42 -21
-70 -11 -13 5 -21 6 -17 2 9 -10 -30 -37 -43 -29 -17 10 -11 25 10 25 11 0 20
5 20 10 0 16 -46 12 -60 -5 -7 -8 -23 -15 -37 -15 -13 0 -22 -4 -19 -9 4 -5 0
-12 -6 -14 -7 -3 16 -6 53 -6 36 -1 69 3 75 8 13 12 134 20 127 8 -4 -6 3 -7
18 -3 13 4 49 10 79 13 61 6 61 -8 0 -26 -28 -8 -11 -9 82 -8 65 1 118 5 118
8 0 4 -15 12 -32 19 -18 6 -45 18 -60 26 -15 8 -55 14 -97 14 -39 0 -71 4 -71
8 0 5 -37 14 -82 21 -46 7 -98 15 -117 18 -24 4 -32 2 -27 -6z"/>
<path d="M18995 1424 c-71 -22 -115 -45 -115 -61 0 -7 -10 -13 -22 -13 -25 -1
-65 -26 -55 -36 8 -9 107 6 107 16 0 10 55 30 84 30 12 0 32 9 46 20 14 11 37
20 53 20 20 0 27 5 27 20 0 17 -6 20 -37 19 -21 0 -60 -7 -88 -15z"/>
<path d="M28495 1351 c-4 -3 -92 -7 -255 -12 -8 0 -133 1 -278 3 -144 2 -267
1 -273 -3 -21 -13 51 -21 155 -18 75 3 108 0 119 -9 13 -11 30 -11 89 -2 40 6
87 9 103 7 17 -3 35 -6 40 -7 25 -2 -44 -29 -77 -30 -41 0 -51 -14 -17 -23 31
-8 79 3 111 24 32 23 42 24 34 4 -9 -24 28 -18 97 16 55 28 66 31 100 22 20
-6 39 -7 42 -3 2 4 64 10 137 14 207 11 231 25 40 23 -90 -1 -165 -3 -167 -6z"/>
<path d="M730 1309 c-23 -10 -53 -19 -66 -19 -13 0 -24 -4 -24 -9 0 -4 41 -11
90 -14 50 -4 109 -10 132 -14 41 -6 42 -5 25 11 -9 10 -17 21 -17 25 0 12 163
0 191 -14 29 -16 269 -20 269 -5 0 5 -60 11 -132 13 -79 2 -163 11 -208 21
-44 11 -92 16 -116 12 -23 -3 -55 -1 -72 3 -22 7 -40 4 -72 -10z"/>
<path d="M29797 1299 c-38 -4 -72 -10 -75 -14 -4 -3 17 -3 46 1 56 7 69 -6 35
-32 -27 -20 -130 -18 -141 2 -8 15 -17 15 -74 5 -93 -16 -108 -15 -108 9 0 24
-27 27 -56 5 -18 -14 -18 -14 11 -15 38 -1 17 -14 -37 -24 -37 -7 -53 6 -23
18 19 7 20 36 1 36 -7 0 -19 -6 -25 -14 -7 -8 -26 -18 -42 -21 -35 -8 -39 -24
-4 -17 25 4 35 -12 13 -21 -25 -10 40 -7 93 4 65 14 107 14 124 -1 10 -8 19
-8 34 -1 11 6 62 11 114 11 122 0 195 21 193 56 0 13 -3 23 -6 23 -3 -1 -36
-5 -73 -10z"/>
<path d="M18330 1215 c-28 -21 -46 -25 -104 -26 -45 0 -64 -3 -51 -8 14 -6 6
-10 -35 -15 -30 -4 -58 -12 -61 -18 -4 -7 -14 -6 -29 2 -16 9 -25 9 -33 1 -8
-8 -8 -11 1 -11 7 0 12 -6 12 -14 0 -21 18 -30 34 -17 7 6 40 12 72 12 69 2
108 12 130 33 8 9 30 16 48 16 58 0 94 11 99 31 4 13 0 19 -12 19 -9 0 -22 5
-27 10 -7 7 -21 2 -44 -15z"/>
<path d="M29830 1211 c-8 -5 -125 -11 -260 -15 -223 -6 -311 -14 -327 -30 -4
-3 19 -6 50 -6 31 0 58 4 61 8 4 7 410 9 460 3 4 -1 6 -8 2 -16 -3 -8 -1 -15
4 -15 15 0 60 49 60 65 0 16 -26 19 -50 6z"/>
<path d="M871 1169 c-18 -4 -38 -12 -44 -18 -16 -16 1 -27 23 -13 15 9 30 9
67 0 51 -13 78 -28 50 -28 -9 0 -17 -4 -17 -10 0 -5 -8 -10 -17 -10 -15 0 -16
2 -3 10 19 12 13 17 -32 25 -26 5 -38 4 -38 -4 0 -6 7 -11 16 -11 13 0 14 -3
5 -14 -9 -11 -3 -15 31 -20 27 -5 44 -3 49 5 8 14 79 4 79 -11 0 -6 33 -10 73
-9 80 0 68 17 -14 18 -42 1 -109 24 -109 38 0 3 25 3 55 0 71 -7 62 8 -13 23
-31 7 -61 17 -67 23 -11 14 -46 16 -94 6z"/>
<path d="M1620 1115 c-25 -7 -61 -14 -81 -14 -76 -2 -130 -50 -56 -52 23 0 50
-4 61 -8 23 -9 78 -2 71 9 -7 12 100 43 130 38 20 -4 23 -3 14 8 -9 12 -4 14
32 14 24 0 61 -5 83 -11 24 -7 42 -7 48 -1 22 22 -236 37 -302 17z"/>
<path d="M598 1104 c19 -9 4 -24 -26 -24 -37 0 -72 -11 -72 -21 0 -5 10 -9 21
-9 12 0 27 -7 33 -16 22 -30 195 -36 189 -6 -3 13 53 17 81 6 25 -9 19 -24 -9
-24 -14 0 -25 -4 -25 -10 0 -11 75 -12 134 -2 33 6 37 9 24 19 -22 19 -172 46
-242 44 -32 -1 -36 2 -27 13 15 18 5 24 -50 31 -24 3 -38 2 -31 -1z"/>
<path d="M17435 1015 c-7 -10 -37 -17 -95 -21 -66 -5 -90 -11 -108 -28 -18
-16 -25 -18 -31 -7 -6 9 -11 10 -15 2 -4 -6 -2 -17 5 -24 9 -9 27 -10 73 -4
34 5 66 10 71 12 6 1 15 4 20 5 6 1 26 8 45 16 19 7 42 13 50 12 39 -3 81 3
76 11 -3 5 -16 7 -29 4 -12 -3 -19 -2 -15 2 4 4 34 7 65 7 53 -2 56 0 35 11
-34 19 -135 20 -147 2z"/>
<path d="M27205 970 c-33 -4 -103 -13 -155 -20 -52 -7 -125 -10 -161 -7 -49 4
-72 2 -85 -8 -17 -13 -15 -14 26 -15 173 -4 270 -1 288 9 12 6 40 11 64 10 59
-2 141 2 151 8 4 3 3 11 -4 19 -12 15 -27 15 -124 4z"/>
<path d="M29065 970 c3 -4 -14 -16 -38 -25 -35 -14 -39 -19 -26 -28 15 -9 15
-13 1 -37 -9 -15 -28 -32 -44 -39 -15 -7 -28 -19 -28 -26 0 -14 -24 -25 -63
-29 -25 -3 -127 -45 -141 -58 -17 -14 38 -8 57 6 10 8 53 21 95 30 42 10 91
22 107 28 17 6 68 21 115 34 100 27 143 42 118 43 -21 1 -156 -34 -215 -56
-62 -23 -70 -12 -19 25 25 18 46 40 46 48 0 8 10 15 23 15 16 1 18 2 5 6 -27
7 -22 20 12 32 35 12 39 26 10 34 -11 3 -18 2 -15 -3z"/>
<path d="M2160 943 c-8 -3 -28 -15 -45 -27 -24 -17 -45 -20 -121 -21 -67 0
-90 -3 -83 -11 13 -16 -21 -24 -103 -24 -38 0 -68 -4 -68 -10 0 -13 189 -5
203 9 6 6 22 11 37 10 23 0 23 -1 5 -10 -14 -6 -5 -8 30 -3 103 11 130 19 130
34 0 11 11 15 39 15 41 0 61 -20 29 -28 -14 -4 -13 -5 5 -6 12 0 22 4 22 10 0
7 40 10 125 8 68 -2 127 -1 130 2 8 9 -130 29 -210 30 -76 2 -99 8 -69 20 15
6 13 8 -11 8 -16 -1 -37 -3 -45 -6z"/>
<path d="M775 881 c9 -29 -31 -47 -120 -53 -50 -4 -92 -13 -113 -24 -31 -17
-35 -18 -45 -3 -8 13 -17 15 -45 7 -19 -5 -55 -8 -79 -6 -32 2 -42 0 -38 -9 2
-8 -4 -13 -15 -13 -22 0 -26 -10 -8 -28 8 -8 17 -8 30 -1 11 6 55 12 98 13 53
2 86 8 104 19 31 21 92 22 112 3 12 -12 19 -11 53 7 21 12 54 34 73 49 33 27
36 27 99 16 35 -6 68 -14 72 -18 4 -4 28 -4 52 0 28 4 42 3 38 -3 -4 -6 12 -7
43 -2 27 5 78 9 114 10 97 3 102 4 95 15 -7 12 -96 12 -175 1 -30 -5 -59 -6
-64 -3 -6 3 -34 4 -63 3 -49 -2 -104 9 -145 30 -10 5 -32 9 -49 9 -25 0 -29
-3 -24 -19z"/>
<path d="M13774 836 c-4 -9 -4 -20 0 -23 4 -4 64 -8 134 -9 137 -1 301 -12
315 -21 16 -10 92 -13 105 -5 16 11 5 42 -14 42 -8 0 -14 -4 -14 -10 0 -15
-29 -12 -46 5 -17 17 -54 20 -54 5 0 -5 -5 -10 -11 -10 -5 0 -7 5 -3 11 3 6
-1 10 -12 9 -11 -1 -21 -1 -24 0 -3 1 -79 3 -170 5 -91 1 -173 5 -182 10 -12
5 -20 2 -24 -9z"/>
<path d="M15366 798 c-18 -25 -21 -42 -7 -33 6 3 14 -3 20 -12 8 -14 12 -15
19 -5 6 9 31 13 73 13 35 0 75 0 89 1 14 0 39 0 55 -1 17 0 55 0 86 1 45 2 56
6 52 18 -3 9 0 7 7 -3 10 -16 20 -18 59 -12 59 9 63 12 48 35 -13 21 -52 27
-62 10 -4 -6 -11 -8 -16 -5 -19 13 -52 13 -112 3 -34 -6 -69 -10 -77 -9 -8 1
-37 3 -65 5 -27 1 -66 6 -85 11 l-35 8 24 -26 23 -26 -28 3 c-21 2 -30 9 -32
25 -4 27 -17 27 -36 -1z"/>
<path d="M14725 787 c-9 -5 -32 -6 -51 -3 -32 6 -34 5 -34 -19 0 -24 1 -25 16
-11 19 19 33 20 59 3 11 -7 38 -12 60 -10 100 8 207 8 212 0 3 -5 26 -6 52 -3
98 13 212 16 206 6 -3 -5 3 -10 14 -10 12 0 21 5 21 10 0 6 9 10 19 10 25 0
38 20 14 21 -10 1 -34 3 -53 5 -89 9 -221 11 -226 3 -3 -5 -25 -9 -50 -9 -25
0 -43 3 -41 8 7 10 -199 10 -218 -1z"/>
<path d="M26517 673 c-98 -4 -112 -23 -17 -23 58 0 85 -12 54 -24 -9 -3 -26
-6 -39 -6 -13 0 -27 -4 -30 -10 -9 -14 23 -12 70 5 47 17 109 20 100 5 -3 -5
0 -10 8 -10 8 0 20 -6 26 -14 13 -15 159 -31 191 -21 55 18 -18 47 -99 40 -31
-3 -50 -2 -43 1 23 11 1 23 -31 17 -30 -6 -31 -5 -17 12 14 17 13 18 -37 11
-56 -7 -68 -1 -30 14 19 8 20 9 2 7 -11 0 -60 -3 -108 -4z"/>
<path d="M29060 635 l-25 -13 28 -7 c35 -9 35 -24 -2 -31 -17 -4 -32 -12 -35
-20 -3 -8 -19 -14 -37 -14 -28 0 -30 -2 -18 -17 13 -15 11 -16 -23 -10 l-37 6
27 -28 c30 -29 35 -29 142 4 64 20 67 21 100 40 22 13 23 15 6 21 -12 5 -22 2
-28 -9 -5 -10 -21 -17 -38 -17 -16 0 -32 -4 -35 -10 -3 -5 -18 -10 -33 -10
-25 0 -24 2 17 25 23 14 49 25 57 25 17 0 18 17 2 23 -10 3 -10 9 0 27 13 21
12 22 -3 16 -10 -3 -23 -2 -29 3 -7 6 -20 4 -36 -4z"/>
<path d="M27401 496 c-7 -8 -10 -20 -6 -26 5 -8 -13 -10 -61 -7 -38 3 -59 3
-46 0 45 -9 12 -32 -78 -54 -103 -25 -139 -35 -146 -42 -14 -13 61 -7 90 8 18
10 41 13 62 9 24 -4 37 -1 51 13 38 35 57 41 131 35 50 -3 72 -1 72 7 0 6 5
11 11 11 6 0 9 -7 5 -15 -3 -9 0 -15 8 -15 8 0 16 6 19 13 4 10 7 10 18 0 17
-17 41 -16 65 1 19 15 19 15 -1 14 -26 -1 -168 42 -176 54 -3 5 -11 2 -18 -6z"/>
<path d="M405 321 c-3 -6 -28 -11 -55 -11 -32 0 -61 -7 -84 -21 -29 -17 -58
-22 -142 -25 -59 -3 -111 -7 -116 -10 -8 -5 -12 -134 -3 -134 2 0 24 6 47 14
24 8 94 17 157 21 86 5 124 11 155 27 25 13 57 20 84 19 23 0 50 3 60 8 9 5
26 13 37 16 40 14 -6 17 -65 5 -31 -7 -67 -9 -78 -6 -21 7 -82 -17 -82 -32 0
-4 -19 -6 -43 -4 l-43 4 10 32 c14 46 45 65 121 73 36 5 66 12 66 18 1 14 -18
18 -26 6z"/>
<path d="M29432 300 c-43 -10 -52 -20 -19 -20 32 0 35 -10 7 -28 -31 -19 -24
-32 19 -32 22 0 42 -4 45 -9 6 -10 82 -20 211 -27 71 -4 94 -1 109 11 29 22 9
32 -25 12 -17 -9 -44 -17 -60 -17 -26 0 -29 3 -24 23 5 19 1 24 -27 32 -23 7
-32 15 -30 28 2 13 -4 17 -32 17 -19 0 -37 4 -41 10 -3 6 -15 5 -31 -2 -18 -9
-27 -9 -36 0 -13 13 -18 13 -66 2z"/>
<path d="M25070 271 c0 -16 6 -18 38 -14 44 6 107 -20 99 -41 -5 -13 11 -14
176 -15 38 0 77 -3 88 -6 23 -7 26 -25 4 -25 -8 0 -15 -4 -15 -10 0 -5 -9 -10
-20 -10 -11 0 -20 -4 -20 -10 0 -5 -8 -10 -19 -10 -21 0 -45 -23 -34 -33 13
-13 31 -7 64 23 36 32 92 40 142 21 17 -7 38 -6 64 2 l38 12 -52 3 c-65 4 -97
32 -36 32 21 0 48 6 59 14 17 13 13 15 -48 15 -36 0 -84 4 -105 10 -21 6 -94
12 -162 13 -105 3 -125 6 -128 19 -5 17 -49 29 -105 29 -21 0 -28 -5 -28 -19z"/>
<path d="M24940 200 c0 -5 6 -11 13 -13 6 -3 2 -6 -10 -6 -12 -1 -25 -5 -28
-11 -3 -5 -19 -10 -35 -10 -22 0 -28 -4 -24 -15 7 -18 -30 -21 -70 -5 -16 6
-26 6 -26 0 0 -6 -10 -6 -26 0 -31 12 -87 13 -80 1 3 -4 46 -14 96 -21 69 -10
97 -10 116 -1 14 6 42 11 62 11 29 0 34 3 22 11 -12 8 -9 9 10 4 14 -4 59 -11
100 -15 41 -5 76 -9 78 -9 2 -1 2 -9 0 -18 -3 -18 -1 -19 57 -15 34 3 32 22
-3 22 -15 0 -37 7 -48 15 -12 8 -48 24 -80 36 -33 12 -63 25 -69 29 -16 12
-55 19 -55 10z"/>
<path d="M533 183 c-12 -2 -27 -11 -34 -20 -12 -13 -8 -15 36 -12 73 4 115 0
115 -10 0 -13 -82 -31 -141 -31 -37 0 -50 -3 -43 -10 14 -14 116 -15 142 -1
12 6 62 14 111 18 67 4 91 10 91 19 0 10 -14 14 -45 14 -25 0 -56 7 -68 15
-22 14 -124 26 -164 18z"/>
<path d="M1321 173 c-19 -3 -43 -11 -55 -18 -15 -10 -64 -14 -176 -16 -146 -2
-189 -8 -216 -35 -7 -6 -64 -16 -128 -22 -112 -11 -170 -28 -178 -54 -3 -8
-20 -11 -49 -9 -44 3 -63 18 -64 51 0 21 -95 28 -95 7 0 -29 -41 -52 -94 -53
-28 0 -59 -4 -68 -8 -10 -5 -26 -5 -35 0 -16 7 -15 8 4 11 13 3 23 11 23 18 0
17 -60 2 -75 -19 -6 -7 -19 -16 -30 -19 -11 -2 56 -5 148 -6 110 -1 166 2 162
9 -3 6 -13 10 -21 10 -8 0 -14 7 -14 15 0 12 11 15 46 13 42 -1 45 -3 40 -24
-6 -22 -5 -22 109 -23 115 -2 139 6 88 26 -23 9 -11 11 67 11 124 0 209 11
239 30 13 8 42 15 63 16 29 0 38 5 38 18 0 13 8 18 30 18 18 0 30 -5 30 -13 0
-9 22 -13 85 -12 47 0 85 3 85 8 0 4 -8 7 -17 7 -17 1 -17 1 0 14 9 7 52 19
95 26 57 9 72 15 57 21 -21 8 -39 8 -94 2z"/>
<path d="M25907 149 c-11 -6 -33 -8 -52 -5 -18 4 -36 2 -39 -3 -11 -17 48 -22
94 -8 53 15 129 8 183 -18 20 -9 44 -15 54 -13 10 3 35 -4 55 -14 43 -21 79
-24 76 -5 -2 9 18 12 72 13 118 0 130 2 130 20 0 13 -8 15 -42 10 -87 -12
-236 -10 -252 3 -15 13 -35 16 -176 26 -56 4 -91 2 -103 -6z"/>
<path d="M28450 154 c0 -13 35 -33 60 -34 19 0 21 -3 11 -9 -11 -7 -4 -11 25
-16 63 -11 66 -13 58 -37 -6 -22 -6 -22 13 -6 26 23 49 23 70 -2 10 -11 26
-20 37 -20 35 0 3 -18 -39 -23 -22 -2 20 -4 93 -5 72 -1 132 2 132 7 0 14 -52
20 -77 8 -29 -13 -44 0 -20 18 16 12 14 13 -21 8 -24 -3 -42 -1 -46 6 -4 6
-16 11 -28 11 -11 0 -29 11 -40 25 -11 14 -30 25 -43 25 -12 0 -29 9 -36 19
-10 14 -32 21 -81 26 -38 4 -68 3 -68 -1z"/>
<path d="M1635 130 c-3 -5 -41 -9 -84 -9 -53 1 -88 -4 -108 -15 -17 -8 -33
-12 -36 -9 -4 3 -9 -2 -13 -11 -4 -10 -19 -16 -43 -17 l-36 -1 30 -9 c34 -11
100 -4 165 16 25 8 63 16 85 18 22 2 54 8 70 12 27 8 29 7 16 -8 -12 -15 -10
-17 18 -17 17 0 31 4 31 9 0 19 38 21 83 6 45 -15 124 -9 164 13 31 18 -6 23
-66 9 -66 -15 -104 -13 -122 9 -13 16 -144 20 -154 4z"/>
<path d="M23958 113 c24 -9 12 -21 -40 -38 -35 -11 -66 -15 -95 -10 -29 4 -43
3 -43 -5 0 -12 -92 -9 -155 5 -19 4 -44 0 -68 -10 -59 -25 -37 -38 52 -30 42
3 132 8 200 10 93 3 127 8 140 19 10 9 32 16 49 16 18 0 32 4 32 9 0 9 -62 42
-77 40 -4 0 -2 -3 5 -6z"/>
<path d="M27087 104 c-10 -10 -176 -31 -204 -26 -26 5 -27 4 -10 -12 11 -11
15 -26 12 -37 -7 -22 19 -27 32 -5 12 20 48 36 81 36 16 0 43 5 60 11 17 6 37
9 44 6 7 -2 -2 -9 -21 -14 -19 -5 -36 -14 -39 -21 -3 -9 3 -10 25 -1 15 6 61
12 101 14 81 5 112 12 112 26 0 12 -17 12 -41 -1 -15 -8 -19 -7 -19 3 0 20
-116 38 -133 21z"/>
<path d="M5835 84 c-22 -8 -58 -23 -80 -33 -22 -10 -76 -21 -119 -25 l-80 -7
24 19 c14 11 30 18 36 15 7 -2 15 1 20 8 13 21 -107 2 -131 -21 -22 -21 -70
-27 -80 -10 -8 13 -72 13 -80 -1 -5 -7 3 -10 21 -8 46 3 66 0 59 -11 -4 -7 50
-10 154 -10 89 0 161 4 161 9 0 4 24 12 53 17 40 7 52 13 51 27 -1 10 7 19 22
23 13 3 24 10 24 15 0 12 -6 11 -55 -7z"/>
<path d="M2970 46 c0 -11 9 -12 46 -4 52 11 68 3 39 -18 -13 -10 -31 -13 -50
-9 -16 3 -53 5 -81 5 -28 -1 -63 4 -78 10 -20 7 -40 7 -69 -1 -23 -7 -62 -11
-87 -11 -25 1 -61 -2 -80 -7 -27 -7 -10 -9 73 -10 64 -1 117 4 130 10 16 9 22
9 25 0 5 -14 302 -16 302 -1 0 6 -7 10 -16 10 -9 0 -14 5 -12 12 3 8 21 11 51
9 29 -1 47 2 47 8 0 7 -41 11 -120 11 -95 0 -120 -3 -120 -14z"/>
<path d="M6015 47 c-22 -5 -71 -12 -109 -15 -41 -4 -71 -12 -74 -19 -5 -18
239 -18 256 -1 9 9 17 9 34 0 30 -16 600 -12 605 4 2 7 -8 9 -27 6 -19 -3 -30
0 -30 8 0 15 172 8 240 -10 72 -19 117 -23 124 -11 4 6 16 11 27 11 10 0 19 4
19 8 0 10 -168 22 -299 22 -112 0 -197 -10 -179 -21 10 -7 9 -9 -4 -9 -10 0
-18 7 -18 16 0 13 -9 15 -57 9 -32 -4 -97 -7 -145 -7 -62 -1 -88 -5 -92 -14
-6 -15 -132 -8 -153 8 -22 18 -77 25 -118 15z"/>
</g>
</svg>
